<?xml version="1.0" encoding="UTF-8"?>
<svg width="1237px" height="400px" viewBox="0 0 1237 400" version="1.1" xmlns="http://www.w3.org/2000/svg" xmlns:xlink="http://www.w3.org/1999/xlink">
    <title>asteroids</title>
    <defs>
        <linearGradient x1="50%" y1="2.60283801%" x2="50%" y2="100%" id="linearGradient-1">
            <stop stop-color="#75AF9E" offset="0%"></stop>
            <stop stop-color="#084E62" offset="100%"></stop>
        </linearGradient>
        <linearGradient x1="82.9845924%" y1="14.3193354%" x2="1.77050811%" y2="100%" id="linearGradient-2">
            <stop stop-color="#FAFBEC" stop-opacity="0" offset="0%"></stop>
            <stop stop-color="#F4F5D5" offset="100%"></stop>
        </linearGradient>
        <linearGradient x1="0%" y1="50%" x2="21.0715565%" y2="50%" id="linearGradient-3">
            <stop stop-color="#75AF9E" offset="0%"></stop>
            <stop stop-color="#94C5B4" stop-opacity="0" offset="100%"></stop>
        </linearGradient>
        <linearGradient x1="-0.115406689%" y1="100%" x2="100.115407%" y2="0%" id="linearGradient-4">
            <stop stop-color="#FFFFFF" stop-opacity="0.5" offset="0%"></stop>
            <stop stop-color="#000000" stop-opacity="0.5" offset="100%"></stop>
        </linearGradient>
        <linearGradient x1="72.0020011%" y1="27.5582555%" x2="-0.0605261168%" y2="100%" id="linearGradient-5">
            <stop stop-color="#FAFBEC" stop-opacity="0" offset="0%"></stop>
            <stop stop-color="#F4F5D5" offset="100%"></stop>
        </linearGradient>
        <linearGradient x1="2.84179142%" y1="50%" x2="38.4541505%" y2="50%" id="linearGradient-6">
            <stop stop-color="#75AF9E" offset="0%"></stop>
            <stop stop-color="#94C5B4" stop-opacity="0" offset="100%"></stop>
        </linearGradient>
        <linearGradient x1="85.1983915%" y1="17.8029832%" x2="-0.0853085536%" y2="100%" id="linearGradient-7">
            <stop stop-color="#F9FAE7" stop-opacity="0" offset="0%"></stop>
            <stop stop-color="#F4F5D5" offset="100%"></stop>
        </linearGradient>
        <linearGradient x1="2.84179142%" y1="50%" x2="58.9980798%" y2="50%" id="linearGradient-8">
            <stop stop-color="#75AF9E" offset="0%"></stop>
            <stop stop-color="#94C5B4" stop-opacity="0" offset="100%"></stop>
        </linearGradient>
    </defs>
    <g id="asteroids" stroke="none" stroke-width="1" fill="none" fill-rule="evenodd">
        <g id="project-asteroids" transform="translate(759.427692, -123.000000)"></g>
        <rect id="Rectangle" fill="url(#linearGradient-1)" fill-rule="nonzero" x="0" y="0" width="1237" height="400" rx="50"></rect>
        <g id="Group" transform="translate(759.427692, -123.000000)" fill-rule="nonzero">
            <path d="M403.479883,348.492028 L528.38586,220.85083 L510.897603,203.378627 L385.073238,331.93737 L385.119082,331.983172 C382.925526,334.212845 381.572308,337.271104 381.572308,340.645286 C381.572308,347.468606 387.106093,353 393.932365,353 C397.777734,353 401.212962,351.244731 403.479883,348.492028 Z" id="asteroid-3__tail" fill="url(#linearGradient-2)"></path>
            <polygon id="asteroid-3__halo" fill="url(#linearGradient-3)" opacity="0.5" transform="translate(436.284076, 299.161762) rotate(-45.000000) translate(-436.284076, -299.161762) " points="376.653601 290.9423 495.914552 290.9423 495.914552 307.381225 376.653601 307.381225"></polygon>
            <g id="asteroid-3" transform="translate(385.572308, 333.000000)">
                <g id="path-5-link" fill="#FFFFFF">
                    <circle id="path-5" cx="8.5" cy="8.5" r="8.5"></circle>
                </g>
                <g id="path-5-link" fill="url(#linearGradient-4)">
                    <circle id="path-5" cx="8.5" cy="8.5" r="8.5"></circle>
                </g>
                <g id="path-5-link" style="mix-blend-mode: multiply;" fill="#F56A40">
                    <circle id="path-5" cx="8.5" cy="8.5" r="8.5"></circle>
                </g>
            </g>
            <path d="M393.854247,334.635231 C389.782545,335.004318 386.592015,338.439181 386.592015,342.621973 C386.592015,347.051064 390.16935,350.641552 394.582216,350.641552 C396.462168,350.641552 398.19048,349.989915 399.555162,348.899411 C399.386152,348.570361 399.08165,348.350244 398.734092,348.350244 L395.54407,348.350244 C395.009414,348.350244 394.582216,347.837317 394.582216,347.20459 C394.582216,346.57315 395.012821,346.058936 395.543998,346.058936 L395.857691,346.058936 C396.388107,346.058936 396.819473,345.546009 396.819473,344.913281 C396.819473,344.281842 396.389994,343.767627 395.860205,343.767627 L390.747363,343.767627 C390.217355,343.767627 389.788095,343.254701 389.788095,342.621973 C389.788095,341.990533 390.2187,341.476319 390.749877,341.476319 L391.06357,341.476319 C391.593986,341.476319 392.025352,340.963392 392.025352,340.330665 C392.025352,339.699225 391.595833,339.185011 391.065996,339.185011 L390.427844,339.185011 C389.896449,339.185011 389.468488,338.672084 389.468488,338.039356 C389.468488,337.407917 389.899123,336.893702 390.430341,336.893702 L393.620363,336.893702 C394.155018,336.893702 394.582216,336.380776 394.582216,335.748048 C394.582216,335.210549 394.272124,334.757991 393.854247,334.635231 Z" id="asteroid-3__flames" fill="#F56A40" transform="translate(393.073588, 342.638391) rotate(-45.000000) translate(-393.073588, -342.638391) "></path>
            <path d="M236.528646,229.889572 C230.995711,235.412937 227.572308,243.050911 227.572308,251.488901 C227.572308,268.339716 241.225111,282 258.066696,282 C267.008041,282 275.050582,278.149657 280.628441,272.015708 L408.572308,144.149211 L365.396989,101 L236.479037,229.839993 L236.528646,229.889572 Z" id="asteroid-2__tail" fill="url(#linearGradient-5)"></path>
            <polygon id="asteroid-2__halo" fill="url(#linearGradient-6)" opacity="0.5" transform="translate(323.072594, 186.252303) rotate(-45.000000) translate(-323.072594, -186.252303) " points="231.898461 165.919949 414.246727 165.919949 414.246727 206.584658 231.898461 206.584658"></polygon>
            <g id="asteroid-2" transform="translate(238.572308, 231.000000)">
                <g id="path-8-link" fill="#FFFFFF">
                    <circle id="path-8" cx="20" cy="20" r="20"></circle>
                </g>
                <g id="path-8-link" fill="url(#linearGradient-4)">
                    <circle id="path-8" cx="20" cy="20" r="20"></circle>
                </g>
                <g id="path-8-link" style="mix-blend-mode: multiply;" fill="#F56A40">
                    <circle id="path-8" cx="20" cy="20" r="20"></circle>
                </g>
            </g>
            <path d="M271.6539,237.340201 C268.280663,234.86651 264.11616,233.405323 259.609816,233.405323 C248.362053,233.405323 239.243939,242.508427 239.243939,253.737677 C239.243939,264.966926 248.362053,274.070031 259.609816,274.070031 C262.067167,274.070031 264.422868,273.635529 266.604042,272.839281 C266.819511,272.43216 266.941532,271.967968 266.941532,271.475277 L266.941532,271.459703 C266.941532,269.846992 265.634171,268.539631 264.021459,268.539631 L250.310362,268.539631 C248.697651,268.539631 247.39029,267.23227 247.39029,265.619559 L247.39029,265.603985 C247.39029,263.991274 248.697651,262.683913 250.310362,262.683913 L250.310362,262.683913 L252.616568,262.683913 C254.22928,262.683913 255.53664,261.376552 255.53664,259.763841 L255.53664,259.748267 C255.53664,258.135556 254.22928,256.828195 252.616568,256.828195 L252.59134,256.828195 L252.59134,256.828195 C250.978629,256.828195 249.671268,255.520834 249.671268,253.908123 L249.671268,253.892549 L249.671268,253.892549 C249.671268,252.279837 250.978629,250.972477 252.59134,250.972477 L264.021459,250.972477 L264.021459,250.972477 C265.634171,250.972477 266.941532,249.665116 266.941532,248.052405 L266.941532,248.036831 C266.941532,246.42412 265.634171,245.116759 264.021459,245.116759 L262.692815,245.116759 C261.080104,245.116759 259.772743,243.809398 259.772743,242.196686 L259.772743,242.181113 L259.772743,242.181113 C259.772743,240.568401 261.080104,239.26104 262.692815,239.26104 L268.90927,239.26104 C270.170997,239.26104 271.245822,238.460813 271.6539,237.340201 Z" id="asterois-2__flames" fill="#F56A40" transform="translate(255.448920, 253.737677) rotate(-45.000000) translate(-255.448920, -253.737677) "></path>
            <path d="M217.308455,299.353408 C206.348316,310.342238 199.572308,325.504668 199.572308,342.249377 C199.572308,375.80102 226.777152,403 260.336028,403 C278.610262,403 295.000356,394.934782 306.139504,382.170426 L513.572308,174.914354 L427.584692,89 L217.180184,299.225245 L217.308455,299.353408 Z" id="asteroid-1__tail" fill="url(#linearGradient-7)"></path>
            <polygon id="asyeroid-1__halo" fill="url(#linearGradient-8)" opacity="0.5" transform="translate(362.610194, 239.462508) rotate(-45.000000) translate(-362.610194, -239.462508) " points="217.206897 198.7978 508.013491 198.7978 508.013491 280.127217 217.206897 280.127217"></polygon>
            <g id="asteroid-1" transform="translate(219.572308, 302.000000)">
                <g id="path-11-link" fill="#FFFFFF">
                    <circle id="path-11" cx="40.5" cy="40.5" r="40.5"></circle>
                </g>
                <g id="path-11-link" fill="url(#linearGradient-4)">
                    <circle id="path-11" cx="40.5" cy="40.5" r="40.5"></circle>
                </g>
                <g id="path-11-link" style="mix-blend-mode: multiply;" fill="#F56A40">
                    <circle id="path-11" cx="40.5" cy="40.5" r="40.5"></circle>
                </g>
            </g>
            <path d="M260.325322,392.171467 C239.550727,390.355813 223.256364,372.974814 223.256364,351.801351 C223.256364,329.419073 241.464359,311.274653 263.92506,311.274653 C266.97561,311.274653 269.947714,311.609351 272.806409,312.243906 C273.936778,313.068627 274.661596,314.344993 274.661596,315.777619 C274.661596,318.265086 272.475774,320.280586 269.779427,320.280586 L256.118596,320.280586 C253.419174,320.280586 251.236427,322.296633 251.236427,324.783552 C251.236427,327.271019 253.420622,329.286518 256.114963,329.286518 L259.046524,329.286518 C261.740197,329.286518 263.92506,331.302565 263.92506,333.789485 C263.92506,336.276951 261.738867,338.292452 259.042061,338.292452 L248.636386,338.292452 C245.940884,338.292452 243.753387,340.308498 243.753387,342.795418 C243.753387,345.282885 245.936971,347.298384 248.630558,347.298384 L273.688619,347.298384 C276.381529,347.298384 278.565791,349.314431 278.565791,351.801351 C278.565791,354.288817 276.380237,356.304317 273.68422,356.304317 L238.87447,356.304317 C236.180489,356.304317 233.9929,358.320364 233.9929,360.807284 C233.9929,363.29475 236.177636,365.31025 238.872646,365.31025 L244.079234,365.31025 C246.774775,365.31025 248.95898,367.326297 248.95898,369.813216 C248.95898,372.300683 246.775113,374.316183 244.081175,374.316183 L245.377696,374.316183 C242.683815,374.316183 240.499891,376.33223 240.499891,378.81915 C240.499891,381.306616 242.685713,383.322116 245.38206,383.322116 L259.042891,383.322116 C261.742313,383.322116 263.92506,385.338163 263.92506,387.825082 C263.92506,389.903584 262.399471,391.652553 260.325322,392.171467 Z" id="asteroid-1__flames" fill="#F56A40" transform="translate(250.911077, 351.723060) rotate(-45.000000) translate(-250.911077, -351.723060) "></path>
        </g>
        <g id="Group-2" transform="translate(193.000000, 103.000000)" fill-rule="nonzero" font-family="Helvetica" font-weight="normal">
            <g id="Asteroids" fill="#D8D8D8" font-size="165.789474">
                <text>
                    <tspan x="0" y="161">Asteroids</tspan>
                </text>
            </g>
            <g id="by-Space-Nomads" transform="translate(413.000000, 170.000000)" fill="#75AF9E" font-size="33.1578947">
                <text>
                    <tspan x="0" y="33">by Space Nomads</tspan>
                </text>
            </g>
        </g>
    </g>
</svg>