<?xml version="1.0" encoding="UTF-8"?>
<svg width="1237px" height="400px" viewBox="0 0 1237 400" version="1.1" xmlns="http://www.w3.org/2000/svg" xmlns:xlink="http://www.w3.org/1999/xlink">
    <title>asteroids</title>
    <defs>
        <linearGradient x1="50%" y1="2.60283801%" x2="50%" y2="100%" id="linearGradient-1">
            <stop stop-color="#75AF9E" offset="0%"></stop>
            <stop stop-color="#084E62" offset="100%"></stop>
        </linearGradient>
        <linearGradient x1="82.9845924%" y1="14.3193354%" x2="1.77050811%" y2="100%" id="linearGradient-2">
            <stop stop-color="#FAFBEC" stop-opacity="0" offset="0%"></stop>
            <stop stop-color="#F4F5D5" offset="100%"></stop>
        </linearGradient>
        <linearGradient x1="0%" y1="50%" x2="21.0715565%" y2="50%" id="linearGradient-3">
            <stop stop-color="#75AF9E" offset="0%"></stop>
            <stop stop-color="#94C5B4" stop-opacity="0" offset="100%"></stop>
        </linearGradient>
        <linearGradient x1="-0.115406689%" y1="100%" x2="100.115407%" y2="0%" id="linearGradient-4">
            <stop stop-color="#FFFFFF" stop-opacity="0.5" offset="0%"></stop>
            <stop stop-color="#000000" stop-opacity="0.5" offset="100%"></stop>
        </linearGradient>
        <linearGradient x1="72.0020011%" y1="27.5582555%" x2="-0.0605261168%" y2="100%" id="linearGradient-5">
            <stop stop-color="#FAFBEC" stop-opacity="0" offset="0%"></stop>
            <stop stop-color="#F4F5D5" offset="100%"></stop>
        </linearGradient>
        <linearGradient x1="2.84179142%" y1="50%" x2="38.4541505%" y2="50%" id="linearGradient-6">
            <stop stop-color="#75AF9E" offset="0%"></stop>
            <stop stop-color="#94C5B4" stop-opacity="0" offset="100%"></stop>
        </linearGradient>
        <linearGradient x1="85.1983915%" y1="17.8029832%" x2="-0.0853085536%" y2="100%" id="linearGradient-7">
            <stop stop-color="#F9FAE7" stop-opacity="0" offset="0%"></stop>
            <stop stop-color="#F4F5D5" offset="100%"></stop>
        </linearGradient>
        <linearGradient x1="2.84179142%" y1="50%" x2="58.9980798%" y2="50%" id="linearGradient-8">
            <stop stop-color="#75AF9E" offset="0%"></stop>
            <stop stop-color="#94C5B4" stop-opacity="0" offset="100%"></stop>
        </linearGradient>
    </defs>
    <g id="asteroids" stroke="none" stroke-width="1" fill="none" fill-rule="evenodd">
        <g id="project-asteroids" transform="translate(759.427692, -123.000000)"></g>
        <rect id="Rectangle" fill="url(#linearGradient-1)" fill-rule="nonzero" x="0" y="0" width="1237" height="400" rx="50"></rect>
        <g id="Group" transform="translate(759.427692, -123.000000)" fill-rule="nonzero">
            <path d="M403.479883,348.492028 L528.38586,220.85083 L510.897603,203.378627 L385.073238,331.93737 L385.119082,331.983172 C382.925526,334.212845 381.572308,337.271104 381.572308,340.645286 C381.572308,347.468606 387.106093,353 393.932365,353 C397.777734,353 401.212962,351.244731 403.479883,348.492028 Z" id="asteroid-3__tail" fill="url(#linearGradient-2)"></path>
            <polygon id="asteroid-3__halo" fill="url(#linearGradient-3)" opacity="0.5" transform="translate(436.284076, 299.161762) rotate(-45.000000) translate(-436.284076, -299.161762) " points="376.653601 290.9423 495.914552 290.9423 495.914552 307.381225 376.653601 307.381225"></polygon>
            <g id="asteroid-3" transform="translate(385.572308, 333.000000)">
                <g id="path-5-link" fill="#FFFFFF">
                    <circle id="path-5" cx="8.5" cy="8.5" r="8.5"></circle>
                </g>
                <g id="path-5-link" fill="url(#linearGradient-4)">
                    <circle id="path-5" cx="8.5" cy="8.5" r="8.5"></circle>
                </g>
                <g id="path-5-link" style="mix-blend-mode: multiply;" fill="#F56A40">
                    <circle id="path-5" cx="8.5" cy="8.5" r="8.5"></circle>
                </g>
            </g>
            <path d="M393.854247,334.635231 C389.782545,335.004318 386.592015,338.439181 386.592015,342.621973 C386.592015,347.051064 390.16935,350.641552 394.582216,350.641552 C396.462168,350.641552 398.19048,349.989915 399.555162,348.899411 C399.386152,348.570361 399.08165,348.350244 398.734092,348.350244 L395.54407,348.350244 C395.009414,348.350244 394.582216,347.837317 394.582216,347.20459 C394.582216,346.57315 395.012821,346.058936 395.543998,346.058936 L395.857691,346.058936 C396.388107,346.058936 396.819473,345.546009 396.819473,344.913281 C396.819473,344.281842 396.389994,343.767627 395.860205,343.767627 L390.747363,343.767627 C390.217355,343.767627 389.788095,343.254701 389.788095,342.621973 C389.788095,341.990533 390.2187,341.476319 390.749877,341.476319 L391.06357,341.476319 C391.593986,341.476319 392.025352,340.963392 392.025352,340.330665 C392.025352,339.699225 391.595833,339.185011 391.065996,339.185011 L390.427844,339.185011 C389.896449,339.185011 389.468488,338.672084 389.468488,338.039356 C389.468488,337.407917 389.899123,336.893702 390.430341,336.893702 L393.620363,336.893702 C394.155018,336.893702 394.582216,336.380776 394.582216,335.748048 C394.582216,335.210549 394.272124,334.757991 393.854247,334.635231 Z" id="asteroid-3__flames" fill="#F56A40" transform="translate(393.073588, 342.638391) rotate(-45.000000) translate(-393.073588, -342.638391) "></path>
            <path d="M236.528646,229.889572 C230.995711,235.412937 227.572308,243.050911 227.572308,251.488901 C227.572308,268.339716 241.225111,282 258.066696,282 C267.008041,282 275.050582,278.149657 280.628441,272.015708 L408.572308,144.149211 L365.396989,101 L236.479037,229.839993 L236.528646,229.889572 Z" id="asteroid-2__tail" fill="url(#linearGradient-5)"></path>
            <polygon id="asteroid-2__halo" fill="url(#linearGradient-6)" opacity="0.5" transform="translate(323.072594, 186.252303) rotate(-45.000000) translate(-323.072594, -186.252303) " points="231.898461 165.919949 414.246727 165.919949 414.246727 206.584658 231.898461 206.584658"></polygon>
            <g id="asteroid-2" transform="translate(238.572308, 231.000000)">
                <g id="path-8-link" fill="#FFFFFF">
                    <circle id="path-8" cx="20" cy="20" r="20"></circle>
                </g>
                <g id="path-8-link" fill="url(#linearGradient-4)">
                    <circle id="path-8" cx="20" cy="20" r="20"></circle>
                </g>
                <g id="path-8-link" style="mix-blend-mode: multiply;" fill="#F56A40">
                    <circle id="path-8" cx="20" cy="20" r="20"></circle>
                </g>
            </g>
            <path d="M271.6539,237.340201 C268.280663,234.86651 264.11616,233.405323 259.609816,233.405323 C248.362053,233.405323 239.243939,242.508427 239.243939,253.737677 C239.243939,264.966926 248.362053,274.070031 259.609816,274.070031 C262.067167,274.070031 264.422868,273.635529 266.604042,272.839281 C266.819511,272.43216 266.941532,271.967968 266.941532,271.475277 L266.941532,271.459703 C266.941532,269.846992 265.634171,268.539631 264.021459,268.539631 L250.310362,268.539631 C248.697651,268.539631 247.39029,267.23227 247.39029,265.619559 L247.39029,265.603985 C247.39029,263.991274 248.697651,262.683913 250.310362,262.683913 L250.310362,262.683913 L252.616568,262.683913 C254.22928,262.683913 255.53664,261.376552 255.53664,259.763841 L255.53664,259.748267 C255.53664,258.135556 254.22928,256.828195 252.616568,256.828195 L252.59134,256.828195 L252.59134,256.828195 C250.978629,256.828195 249.671268,255.520834 249.671268,253.908123 L249.671268,253.892549 L249.671268,253.892549 C249.671268,252.279837 250.978629,250.972477 252.59134,250.972477 L264.021459,250.972477 L264.021459,250.972477 C265.634171,250.972477 266.941532,249.665116 266.941532,248.052405 L266.941532,248.036831 C266.941532,246.42412 265.634171,245.116759 264.021459,245.116759 L262.692815,245.116759 C261.080104,245.116759 259.772743,243.809398 259.772743,242.196686 L259.772743,242.181113 L259.772743,242.181113 C259.772743,240.568401 261.080104,239.26104 262.692815,239.26104 L268.90927,239.26104 C270.170997,239.26104 271.245822,238.460813 271.6539,237.340201 Z" id="asterois-2__flames" fill="#F56A40" transform="translate(255.448920, 253.737677) rotate(-45.000000) translate(-255.448920, -253.737677) "></path>
            <path d="M217.308455,299.353408 C206.348316,310.342238 199.572308,325.504668 199.572308,342.249377 C199.572308,375.80102 226.777152,403 260.336028,403 C278.610262,403 295.000356,394.934782 306.139504,382.170426 L513.572308,174.914354 L427.584692,89 L217.180184,299.225245 L217.308455,299.353408 Z" id="asteroid-1__tail" fill="url(#linearGradient-7)"></path>
            <polygon id="asyeroid-1__halo" fill="url(#linearGradient-8)" opacity="0.5" transform="translate(362.610194, 239.462508) rotate(-45.000000) translate(-362.610194, -239.462508) " points="217.206897 198.7978 508.013491 198.7978 508.013491 280.127217 217.206897 280.127217"></polygon>
            <g id="asteroid-1" transform="translate(219.572308, 302.000000)">
                <g id="path-11-link" fill="#FFFFFF">
                    <circle id="path-11" cx="40.5" cy="40.5" r="40.5"></circle>
                </g>
                <g id="path-11-link" fill="url(#linearGradient-4)">
                    <circle id="path-11" cx="40.5" cy="40.5" r="40.5"></circle>
                </g>
                <g id="path-11-link" style="mix-blend-mode: multiply;" fill="#F56A40">
                    <circle id="path-11" cx="40.5" cy="40.5" r="40.5"></circle>
                </g>
            </g>
            <path d="M260.325322,392.171467 C239.550727,390.355813 223.256364,372.974814 223.256364,351.801351 C223.256364,329.419073 241.464359,311.274653 263.92506,311.274653 C266.97561,311.274653 269.947714,311.609351 272.806409,312.243906 C273.936778,313.068627 274.661596,314.344993 274.661596,315.777619 C274.661596,318.265086 272.475774,320.280586 269.779427,320.280586 L256.118596,320.280586 C253.419174,320.280586 251.236427,322.296633 251.236427,324.783552 C251.236427,327.271019 253.420622,329.286518 256.114963,329.286518 L259.046524,329.286518 C261.740197,329.286518 263.92506,331.302565 263.92506,333.789485 C263.92506,336.276951 261.738867,338.292452 259.042061,338.292452 L248.636386,338.292452 C245.940884,338.292452 243.753387,340.308498 243.753387,342.795418 C243.753387,345.282885 245.936971,347.298384 248.630558,347.298384 L273.688619,347.298384 C276.381529,347.298384 278.565791,349.314431 278.565791,351.801351 C278.565791,354.288817 276.380237,356.304317 273.68422,356.304317 L238.87447,356.304317 C236.180489,356.304317 233.9929,358.320364 233.9929,360.807284 C233.9929,363.29475 236.177636,365.31025 238.872646,365.31025 L244.079234,365.31025 C246.774775,365.31025 248.95898,367.326297 248.95898,369.813216 C248.95898,372.300683 246.775113,374.316183 244.081175,374.316183 L245.377696,374.316183 C242.683815,374.316183 240.499891,376.33223 240.499891,378.81915 C240.499891,381.306616 242.685713,383.322116 245.38206,383.322116 L259.042891,383.322116 C261.742313,383.322116 263.92506,385.338163 263.92506,387.825082 C263.92506,389.903584 262.399471,391.652553 260.325322,392.171467 Z" id="asteroid-1__flames" fill="#F56A40" transform="translate(250.911077, 351.723060) rotate(-45.000000) translate(-250.911077, -351.723060) "></path>
        </g>
        <g id="Group-2" transform="translate(195.428557, 144.676912)" fill-rule="nonzero">
            <g id="Asteroids" fill="#D8D8D8">
                <path d="M71.2376645,70.5900494 L53.1853927,18.0522718 L33.9997944,70.5900494 L71.2376645,70.5900494 Z M44.766396,0.404759458 L62.9805716,0.404759458 L106.12793,119.323088 L88.4804174,119.323088 L76.4185856,83.7042558 L29.3855366,83.7042558 L16.5141859,119.323088 L0,119.323088 L44.766396,0.404759458 Z" id="Shape"></path>
                <path d="M127.499229,92.1232526 C127.930973,96.9803661 129.145251,100.704153 131.142064,103.294614 C134.811883,107.989823 141.180099,110.337428 150.246711,110.337428 C155.643503,110.337428 160.392681,109.163626 164.494244,106.816021 C168.595806,104.468416 170.646587,100.839073 170.646587,95.9279915 C170.646587,92.2042045 169.000566,89.3708882 165.708522,87.4280429 C163.603773,86.2407484 159.448242,84.8645663 153.241931,83.2994964 L141.66581,80.3852283 C134.272204,78.5503187 128.821443,76.4995375 125.313528,74.2328845 C119.053248,70.2932258 115.923109,64.8424651 115.923109,57.8806024 C115.923109,49.6774774 118.877853,43.0394223 124.787341,37.9664371 C130.696829,32.8934519 138.643606,30.3569593 148.627673,30.3569593 C161.687911,30.3569593 171.105315,34.1886822 176.879883,41.8521279 C180.495734,46.7092414 182.249692,51.9441304 182.141756,57.5567949 L168.379934,57.5567949 C168.110095,54.2647513 166.949784,51.2695313 164.899003,48.5711349 C161.552992,44.7394121 155.751439,42.8235506 147.494346,42.8235506 C141.989618,42.8235506 137.820595,43.8759252 134.987279,45.9806744 C132.153963,48.0854236 130.737305,50.8647718 130.737305,54.3187192 C130.737305,58.0964742 132.599198,61.1186781 136.322985,63.3853311 C138.481702,64.7345293 141.66581,65.9218237 145.875309,66.9472143 L155.508584,69.2948191 C165.978362,71.8313117 172.994192,74.2868525 176.556075,76.6614413 C182.222708,80.3852283 185.056024,86.2407484 185.056024,94.2280017 C185.056024,101.945415 182.128264,108.610454 176.272744,114.223119 C170.417224,119.835783 161.499024,122.642116 149.518144,122.642116 C136.619809,122.642116 127.485737,119.714356 122.115928,113.858835 C116.74612,108.003315 113.872327,100.758121 113.494552,92.1232526 L127.499229,92.1232526 Z" id="Path"></path>
                <path d="M204.646382,8.41899672 L219.379626,8.41899672 L219.379626,32.6236123 L233.222399,32.6236123 L233.222399,44.5235403 L219.379626,44.5235403 L219.379626,101.108913 C219.379626,104.131116 220.405017,106.154914 222.455798,107.180304 C223.589124,107.773952 225.478002,108.070775 228.12243,108.070775 C228.824013,108.070775 229.579564,108.057283 230.389083,108.030299 C231.198602,108.003315 232.143041,107.935855 233.222399,107.82792 L233.222399,119.323088 C231.549394,119.808799 229.808928,120.159591 228.001002,120.375463 C226.193077,120.591334 224.23674,120.69927 222.13199,120.69927 C215.332031,120.69927 210.717774,118.958805 208.289217,115.477873 C205.86066,111.996942 204.646382,107.477128 204.646382,101.918431 L204.646382,44.5235403 L192.908358,44.5235403 L192.908358,32.6236123 L204.646382,32.6236123 L204.646382,8.41899672 Z" id="Path"></path>
                <path d="M283.898284,30.6807669 C290.050627,30.6807669 296.014083,32.124409 301.788652,35.0116931 C307.56322,37.8989772 311.961606,41.6362562 314.98381,46.2235301 C317.898078,50.5949322 319.840923,55.6949014 320.812346,61.5234376 C321.675833,65.5170642 322.107576,71.8852797 322.107576,80.628084 L258.560342,80.628084 C258.830181,89.4248562 260.907946,96.4811627 264.793637,101.797004 C268.679328,107.112844 274.696752,109.770765 282.845909,109.770765 C290.455387,109.770765 296.526779,107.261256 301.060085,102.242239 C303.650545,99.3279709 305.485455,95.9549754 306.564813,92.1232526 L320.893298,92.1232526 C320.515523,95.3073603 319.260768,98.8557515 317.129035,102.768426 C314.997302,106.681101 312.609221,109.878701 309.964793,112.361225 C305.539423,116.67866 300.061678,119.592928 293.531559,121.10403 C290.023643,121.967517 286.057001,122.39926 281.631631,122.39926 C270.838045,122.39926 261.690481,118.473093 254.188939,110.62076 C246.687397,102.768426 242.936626,91.772461 242.936626,77.632864 C242.936626,63.7091386 246.714381,52.4028578 254.269891,43.7140214 C261.825401,35.0251851 271.701532,30.6807669 283.898284,30.6807669 Z M307.131476,69.0519635 C306.537829,62.7377159 305.161647,57.6917147 303.00293,53.9139598 C299.009303,46.8981292 292.344264,43.3902139 283.007813,43.3902139 C276.31579,43.3902139 270.703125,45.8052786 266.169819,50.6354082 C261.636513,55.4655377 259.234941,61.6043895 258.965101,69.0519635 L307.131476,69.0519635 Z" id="Shape"></path>
                <path d="M340.402704,32.6236123 L354.245477,32.6236123 L354.245477,47.5997122 C355.378804,44.6854441 358.158152,41.1370529 362.583522,36.9545385 C367.008892,32.7720241 372.108861,30.6807669 377.88343,30.6807669 C378.153269,30.6807669 378.611997,30.7077509 379.259612,30.7617188 C379.907227,30.8156867 381.013569,30.9236226 382.578639,31.0855263 L382.578639,46.4663857 C381.715153,46.304482 380.919126,46.1965461 380.190559,46.1425782 C379.461992,46.0886102 378.665965,46.0616263 377.802478,46.0616263 C370.46284,46.0616263 364.823191,48.4227231 360.883532,53.1449168 C356.943874,57.8671105 354.974044,63.3043792 354.974044,69.4567229 L354.974044,119.323088 L340.402704,119.323088 L340.402704,32.6236123 Z" id="Path"></path>
                <path d="M429.611688,109.932669 C439.271947,109.932669 445.896511,106.276342 449.485378,98.9636874 C453.074245,91.6510332 454.868678,83.5153681 454.868678,74.5566921 C454.868678,66.4615029 453.573448,59.8774158 450.982988,54.8044306 C446.881425,46.8171773 439.811627,42.8235506 429.773592,42.8235506 C420.868884,42.8235506 414.392733,46.2235301 410.345138,53.023489 C406.297544,59.8234478 404.273746,68.0265728 404.273746,77.632864 C404.273746,86.8613796 406.297544,94.5518093 410.345138,100.704153 C414.392733,106.856497 420.814916,109.932669 429.611688,109.932669 Z M430.178352,30.1141036 C441.349713,30.1141036 450.7941,33.8378907 458.511514,41.2854647 C466.228927,48.7330387 470.087634,59.688528 470.087634,74.1519326 C470.087634,88.1296259 466.687655,99.6787624 459.887696,108.799342 C453.087737,117.919922 442.537007,122.480212 428.235506,122.480212 C416.308594,122.480212 406.837223,118.446109 399.821392,110.377904 C392.805562,102.309699 389.297646,91.4756374 389.297646,77.8757197 C389.297646,63.3043792 392.994449,51.7012747 400.388055,43.0664063 C407.781662,34.4315379 417.71176,30.1141036 430.178352,30.1141036 Z" id="Shape"></path>
                <path d="M487.411339,33.0283717 L502.225535,33.0283717 L502.225535,119.323088 L487.411339,119.323088 L487.411339,33.0283717 Z M487.411339,0.404759458 L502.225535,0.404759458 L502.225535,16.9189453 L487.411339,16.9189453 L487.411339,0.404759458 Z" id="Shape"></path>
                <path d="M533.472965,76.9852488 C533.472965,86.2677324 535.442795,94.039114 539.382453,100.299394 C543.322112,106.559673 549.63636,109.689813 558.325196,109.689813 C565.071187,109.689813 570.616391,106.789037 574.96081,100.987485 C579.305228,95.1859325 581.477437,86.8613796 581.477437,76.0138261 C581.477437,65.0583368 579.237768,56.9496557 574.75843,51.6877827 C570.279092,46.4259098 564.747379,43.7949733 558.163292,43.7949733 C550.823654,43.7949733 544.87369,46.6013056 540.3134,52.21397 C535.75311,57.8266345 533.472965,66.0837275 533.472965,76.9852488 Z M555.410928,31.0855263 C562.048983,31.0855263 567.607679,32.4886925 572.087017,35.2950247 C574.677478,36.9140625 577.61873,39.7473787 580.910774,43.7949733 L580.910774,0 L594.915451,0 L594.915451,119.323088 L581.801244,119.323088 L581.801244,107.261256 C578.401265,112.604081 574.380654,116.462788 569.739413,118.837377 C565.098171,121.211966 559.78233,122.39926 553.79189,122.39926 C544.131631,122.39926 535.766602,118.338173 528.696804,110.216 C521.627005,102.093827 518.092106,91.2867497 518.092106,77.7947678 C518.092106,65.1662727 521.316689,54.2242753 527.765857,44.9687757 C534.215024,35.7132761 543.430048,31.0855263 555.410928,31.0855263 Z" id="Shape"></path>
                <path d="M625.110506,92.1232526 C625.54225,96.9803661 626.756528,100.704153 628.753342,103.294614 C632.423161,107.989823 638.791376,110.337428 647.857988,110.337428 C653.254781,110.337428 658.003958,109.163626 662.105521,106.816021 C666.207083,104.468416 668.257865,100.839073 668.257865,95.9279915 C668.257865,92.2042045 666.611843,89.3708882 663.319799,87.4280429 C661.21505,86.2407484 657.05952,84.8645663 650.853208,83.2994964 L639.277087,80.3852283 C631.883481,78.5503187 626.432721,76.4995375 622.924805,74.2328845 C616.664526,70.2932258 613.534386,64.8424651 613.534386,57.8806024 C613.534386,49.6774774 616.48913,43.0394223 622.398618,37.9664371 C628.308106,32.8934519 636.254883,30.3569593 646.23895,30.3569593 C659.299189,30.3569593 668.716592,34.1886822 674.49116,41.8521279 C678.107011,46.7092414 679.860969,51.9441304 679.753033,57.5567949 L665.991212,57.5567949 C665.721372,54.2647513 664.561062,51.2695313 662.51028,48.5711349 C659.164269,44.7394121 653.362717,42.8235506 645.105624,42.8235506 C639.600895,42.8235506 635.431873,43.8759252 632.598556,45.9806744 C629.76524,48.0854236 628.348582,50.8647718 628.348582,54.3187192 C628.348582,58.0964742 630.210476,61.1186781 633.934263,63.3853311 C636.09298,64.7345293 639.277087,65.9218237 643.486586,66.9472143 L653.119861,69.2948191 C663.589639,71.8313117 670.605469,74.2868525 674.167353,76.6614413 C679.833985,80.3852283 682.667301,86.2407484 682.667301,94.2280017 C682.667301,101.945415 679.739541,108.610454 673.884021,114.223119 C668.028501,119.835783 659.110301,122.642116 647.129421,122.642116 C634.231086,122.642116 625.097014,119.714356 619.727206,113.858835 C614.357397,108.003315 611.483605,100.758121 611.105829,92.1232526 L625.110506,92.1232526 Z" id="Path"></path>
            </g>
            <g id="by-Space-Nomads" transform="translate(412.481908, 136.940378)" fill="#75AF9E">
                <path d="M0,0.518092105 L2.8333162,0.518092105 L2.8333162,9.14756373 C3.47013775,8.31645765 4.23108553,7.6823345 5.11615954,7.24519428 C6.00123355,6.80805407 6.96186266,6.58948396 7.99804687,6.58948396 C10.156764,6.58948396 11.9080232,7.33154297 13.2518246,8.81566098 C14.595626,10.299779 15.2675267,12.4881785 15.2675267,15.3808594 C15.2675267,18.1224301 14.6037212,20.3998766 13.2761102,22.213199 C11.9484992,24.0265214 10.1081928,24.9331826 7.7551912,24.9331826 C6.43837377,24.9331826 5.32663446,24.6147718 4.41997327,23.9779502 C3.880294,23.6001748 3.30283717,22.995734 2.6876028,22.1646279 L2.6876028,24.3827097 L0,24.3827097 L0,0.518092105 Z M7.57709704,22.3589124 C9.15296053,22.3589124 10.3321597,21.7328845 11.1146947,20.4808285 C11.8972296,19.2287726 12.2884971,17.577354 12.2884971,15.5265728 C12.2884971,13.7024568 11.8972296,12.1913549 11.1146947,10.9932669 C10.3321597,9.79517886 9.17994449,9.19613487 7.65804893,9.19613487 C6.33043791,9.19613487 5.16742907,9.68724301 4.16902241,10.6694593 C3.17061575,11.6516756 2.67141242,13.2707134 2.67141242,15.5265728 C2.67141242,17.1564042 2.87649054,18.4786184 3.28664679,19.4932155 C4.05299136,21.4036801 5.48314145,22.3589124 7.57709704,22.3589124 Z" id="Shape"></path>
                <path d="M29.4988692,7.04281456 L32.7207545,7.04281456 C32.3105983,8.15455386 31.3985403,10.6910465 29.9845806,14.6522924 C28.9268092,17.631322 28.0417352,20.0598787 27.3293586,21.9379626 C25.6455592,26.3633326 24.4582648,29.061729 23.7674753,30.0331517 C23.0766859,31.0045744 21.8893914,31.4902858 20.2055921,31.4902858 C19.7954359,31.4902858 19.4797235,31.4740954 19.258455,31.4417146 C19.0371865,31.4093339 18.7646484,31.3499692 18.4408409,31.2636205 L18.4408409,28.6083984 C18.9481394,28.748715 19.3151213,28.8350637 19.5417866,28.8674445 C19.7684519,28.8998252 19.9681332,28.9160156 20.1408306,28.9160156 C20.6805099,28.9160156 21.0771741,28.8269685 21.3308234,28.6488744 C21.5844727,28.4707802 21.797646,28.2522101 21.9703433,27.9931641 C22.0243113,27.9068154 22.2185958,27.4642784 22.553197,26.665553 C22.8877981,25.8668277 23.1306538,25.2731805 23.281764,24.8846114 L16.8703742,7.04281456 L20.1732113,7.04281456 L24.8198499,21.1608244 L29.4988692,7.04281456 Z" id="Path"></path>
                <path d="M46.952097,16.7084704 C47.0276521,18.0576686 47.3460629,19.1532175 47.9073294,19.9951172 C48.9758943,21.5709807 50.859375,22.3589124 53.5577714,22.3589124 C54.766653,22.3589124 55.8675987,22.186215 56.8606085,21.8408203 C58.7818668,21.171618 59.7424959,19.97353 59.7424959,18.2465563 C59.7424959,16.9513261 59.3377364,16.0284745 58.5282175,15.4780016 C57.707905,14.9383224 56.4234683,14.4688014 54.6749075,14.0694387 L51.4530222,13.3408717 C49.348273,12.8659539 47.8587582,12.342465 46.9844778,11.770405 C45.4733758,10.7773951 44.7178248,9.29327714 44.7178248,7.31805099 C44.7178248,5.18092105 45.4571854,3.4269634 46.9359067,2.05617804 C48.4146279,0.685392681 50.5085835,0 53.2177734,0 C55.7110917,0 57.8293329,0.601742393 59.5724969,1.80522718 C61.315661,3.00871197 62.187243,4.93266859 62.187243,7.57709704 L59.1596423,7.57709704 C58.9977385,6.30345395 58.6523437,5.32663446 58.1234581,4.64663857 C57.1412418,3.40537623 55.4736328,2.78474507 53.1206312,2.78474507 C51.2209601,2.78474507 49.8555715,3.18410773 49.0244655,3.98283306 C48.1933594,4.78155839 47.7778063,5.70980674 47.7778063,6.76757812 C47.7778063,7.93328536 48.2635177,8.78597862 49.2349404,9.32565789 C49.8717619,9.67105263 51.3127056,10.1027961 53.5577714,10.6208882 L56.8929893,11.3818359 C58.5012335,11.7488178 59.7424959,12.2507196 60.6167763,12.8875411 C62.1278783,13.9992804 62.8834293,15.6129215 62.8834293,17.7284642 C62.8834293,20.3620991 61.9254986,22.2455798 60.0096371,23.3789062 C58.0937757,24.5122327 55.8675987,25.078896 53.3311061,25.078896 C50.3736636,25.078896 48.0584396,24.323345 46.3854338,22.812243 C44.712428,21.3119346 43.8921155,19.2773437 43.9244963,16.7084704 L46.952097,16.7084704 Z" id="Path"></path>
                <path d="M73.8928865,22.4236739 C75.2528783,22.4236739 76.3835064,21.8543123 77.2847708,20.715589 C78.1860352,19.5768657 78.6366673,17.8741776 78.6366673,15.6075247 C78.6366673,14.2259457 78.436986,13.0386513 78.0376234,12.0456414 C77.2820724,10.1351768 75.9004934,9.17994449 73.8928865,9.17994449 C71.874486,9.17994449 70.4929071,10.1891447 69.7481497,12.2075452 C69.348787,13.2869038 69.1491057,14.6576891 69.1491057,16.3199013 C69.1491057,17.6583059 69.348787,18.7970292 69.7481497,19.7360711 C70.5037007,21.5278063 71.8852796,22.4236739 73.8928865,22.4236739 Z M66.3481702,7.12376645 L69.1814864,7.12376645 L69.1814864,9.42280016 C69.76434,8.63486842 70.4011616,8.02503084 71.0919511,7.59328742 C72.0741673,6.94567229 73.229081,6.62186472 74.556692,6.62186472 C76.5211246,6.62186472 78.1887335,7.37471731 79.5595189,8.88042249 C80.9303043,10.3861277 81.615697,12.5367496 81.615697,15.3322882 C81.615697,19.1100432 80.6280839,21.8084396 78.6528577,23.4274774 C77.4008018,24.452868 75.9436678,24.9655633 74.2814556,24.9655633 C72.9754317,24.9655633 71.8798828,24.6795333 70.9948088,24.1074733 C70.4767167,23.7836657 69.8992599,23.2277961 69.2624383,22.4398643 L69.2624383,31.2960012 L66.3481702,31.2960012 L66.3481702,7.12376645 Z" id="Shape"></path>
                <path d="M87.2499486,19.7684519 C87.2499486,20.6103516 87.5575658,21.2741571 88.1728002,21.7598684 C88.7880345,22.2455798 89.5166016,22.4884354 90.3585012,22.4884354 C91.3838919,22.4884354 92.3769017,22.2509766 93.3375308,21.7760588 C94.9565687,20.9881271 95.7660876,19.6982936 95.7660876,17.9065584 L95.7660876,15.5589535 C95.4098993,15.7856188 94.9511719,15.9745066 94.3899054,16.1256168 C93.828639,16.276727 93.2781661,16.3846628 92.7384868,16.4494243 L90.9737356,16.6760896 C89.9159642,16.8164062 89.1226357,17.0376748 88.59375,17.3398951 C87.6978824,17.8471937 87.2499486,18.6567126 87.2499486,19.7684519 Z M94.3089535,13.8751542 C94.9781558,13.7888055 95.4260896,13.5081723 95.6527549,13.0332545 C95.782278,12.7742085 95.8470395,12.4018298 95.8470395,11.9161184 C95.8470395,10.9231086 95.4935495,10.2026367 94.7865697,9.75470292 C94.0795898,9.30676912 93.0676912,9.08280222 91.7508738,9.08280222 C90.2289782,9.08280222 89.1496196,9.49295847 88.5127981,10.313271 C88.1566098,10.7666016 87.9245477,11.4412007 87.8166118,12.3370683 L85.0966283,12.3370683 C85.1505962,10.1999383 85.8440841,8.71312192 87.1770919,7.87661904 C88.5100997,7.04011616 90.0562808,6.62186472 91.8156353,6.62186472 C93.8556229,6.62186472 95.5124383,7.0104338 96.7860814,7.78757196 C98.0489309,8.56471011 98.6803557,9.77359169 98.6803557,11.4142167 L98.6803557,21.4036801 C98.6803557,21.7059005 98.7424188,21.9487562 98.866545,22.1322471 C98.9906713,22.3157381 99.2524157,22.4074836 99.6517784,22.4074836 C99.7813014,22.4074836 99.9270148,22.3993884 100.088919,22.383198 C100.250822,22.3670076 100.42352,22.342722 100.607011,22.3103413 L100.607011,24.4636616 C100.15368,24.5931846 99.8082854,24.6741365 99.5708265,24.7065173 C99.3333676,24.738898 99.00956,24.7550884 98.5994038,24.7550884 C97.5956003,24.7550884 96.8670333,24.3989001 96.4137027,23.6865234 C96.1762438,23.3087479 96.0089433,22.7744655 95.911801,22.083676 C95.3181538,22.8608141 94.4654605,23.5354132 93.3537212,24.1074733 C92.2419819,24.6795333 91.0169099,24.9655633 89.6785053,24.9655633 C88.0702611,24.9655633 86.7561421,24.4771536 85.7361482,23.5003341 C84.7161544,22.5235146 84.2061575,21.301141 84.2061575,19.8332134 C84.2061575,18.2249692 84.7080592,16.97831 85.7118627,16.093236 C86.7156661,15.208162 88.0324835,14.6630859 89.662315,14.4580078 L94.3089535,13.8751542 Z" id="Shape"></path>
                <path d="M110.143143,6.54091283 C112.096782,6.54091283 113.686138,7.01583059 114.91121,7.96566612 C116.136282,8.91550164 116.872944,10.5507299 117.121197,12.8713507 L114.28788,12.8713507 C114.115183,11.8027858 113.721217,10.9150134 113.105983,10.2080335 C112.490748,9.50105366 111.503135,9.14756373 110.143143,9.14756373 C108.286647,9.14756373 106.959036,10.0542249 106.16031,11.8675473 C105.642218,13.0440481 105.383172,14.4957854 105.383172,16.222759 C105.383172,17.9605263 105.750154,19.4230572 106.484118,20.6103516 C107.218082,21.797646 108.372995,22.3912932 109.948859,22.3912932 C111.157741,22.3912932 112.115671,22.0216129 112.822651,21.2822523 C113.529631,20.5428917 114.018041,19.530993 114.28788,18.2465563 L117.121197,18.2465563 C116.797389,20.54559 115.98787,22.226691 114.69264,23.2898592 C113.39741,24.3530273 111.740594,24.8846114 109.722194,24.8846114 C107.455541,24.8846114 105.647615,24.0562037 104.298417,22.3993884 C102.949219,20.742573 102.27462,18.672903 102.27462,16.1903783 C102.27462,13.1465872 103.01398,10.7773951 104.492701,9.08280222 C105.971423,7.38820929 107.854903,6.54091283 110.143143,6.54091283 Z" id="Path"></path>
                <path d="M127.256373,6.65424548 C128.486842,6.65424548 129.679533,6.94297389 130.834447,7.52043072 C131.989361,8.09788754 132.869038,8.84534334 133.473479,9.76279811 C134.056332,10.6370785 134.444901,11.6570724 134.639186,12.8227796 C134.811883,13.6215049 134.898232,14.895148 134.898232,16.6437089 L122.188785,16.6437089 C122.242753,18.4030633 122.658306,19.8143246 123.435444,20.8774928 C124.212582,21.940661 125.416067,22.4722451 127.045898,22.4722451 C128.567794,22.4722451 129.782072,21.9703433 130.688734,20.9665399 C131.206826,20.3836863 131.573808,19.7090872 131.789679,18.9427426 L134.655376,18.9427426 C134.579821,19.5795641 134.32887,20.2892424 133.902524,21.0717773 C133.476177,21.8543123 132.998561,22.4938322 132.469675,22.9903372 C131.584601,23.853824 130.489052,24.4366776 129.183028,24.738898 C128.481445,24.9115954 127.688117,24.9979441 126.803043,24.9979441 C124.644326,24.9979441 122.814813,24.2127107 121.314505,22.642244 C119.814196,21.0717773 119.064042,18.8725843 119.064042,16.0446649 C119.064042,13.2599198 119.819593,10.9986637 121.330695,9.26089638 C122.841797,7.52312911 124.817023,6.65424548 127.256373,6.65424548 Z M131.903012,14.3284848 C131.784282,13.0656353 131.509046,12.056435 131.077303,11.300884 C130.278577,9.89771793 128.945569,9.19613487 127.078279,9.19613487 C125.739875,9.19613487 124.617342,9.67914782 123.710681,10.6451737 C122.804019,11.6111996 122.323705,12.83897 122.269737,14.3284848 L131.903012,14.3284848 Z" id="Shape"></path>
                <polygon id="Path" points="148.0772 0.599043997 151.881939 0.599043997 163.895199 19.8655942 163.895199 0.599043997 166.955181 0.599043997 166.955181 24.3827097 163.344727 24.3827097 151.153372 5.13234992 151.153372 24.3827097 148.0772 24.3827097"></polygon>
                <path d="M178.515111,22.5046258 C180.447163,22.5046258 181.772075,21.7733604 182.489849,20.3108296 C183.207622,18.8482987 183.566509,17.2211657 183.566509,15.4294305 C183.566509,13.8103927 183.307463,12.4935752 182.789371,11.4789782 C181.969058,9.88152755 180.555099,9.08280222 178.547492,9.08280222 C176.76655,9.08280222 175.47132,9.76279811 174.661801,11.1227899 C173.852282,12.4827817 173.447523,14.1234067 173.447523,16.0446649 C173.447523,17.890368 173.852282,19.4284539 174.661801,20.6589227 C175.47132,21.8893914 176.755757,22.5046258 178.515111,22.5046258 Z M178.628444,6.54091283 C180.862716,6.54091283 182.751593,7.28567023 184.295076,8.77518503 C185.838559,10.2646998 186.6103,12.4557977 186.6103,15.3484786 C186.6103,18.1440173 185.930304,20.4538446 184.570312,22.2779605 C183.210321,24.1020765 181.100175,25.0141345 178.239875,25.0141345 C175.854492,25.0141345 173.960218,24.2073139 172.557052,22.5936729 C171.153886,20.9800319 170.452303,18.8132196 170.452303,16.093236 C170.452303,13.1789679 171.191663,10.858347 172.670384,9.13137335 C174.149106,7.40439967 176.135125,6.54091283 178.628444,6.54091283 Z" id="Shape"></path>
                <path d="M190.075041,7.04281456 L192.956928,7.04281456 L192.956928,9.50375206 C193.647718,8.6510588 194.273746,8.03042763 194.835012,7.64185855 C195.795641,6.98344984 196.885794,6.65424548 198.105469,6.65424548 C199.487048,6.65424548 200.598787,6.99424342 201.440687,7.67423931 C201.915604,8.06280839 202.347348,8.63486842 202.735917,9.39041941 C203.383532,8.46217105 204.14448,7.77407997 205.01876,7.32614618 C205.893041,6.87821238 206.875257,6.65424548 207.965409,6.65424548 C210.296824,6.65424548 211.883481,7.49614515 212.72538,9.17994449 C213.178711,10.0866057 213.405376,11.3062808 213.405376,12.83897 L213.405376,24.3827097 L210.377775,24.3827097 L210.377775,12.3370683 C210.377775,11.1821546 210.089047,10.3888261 209.51159,9.95708265 C208.934133,9.52533923 208.229852,9.30946752 207.398746,9.30946752 C206.254626,9.30946752 205.269711,9.6926398 204.444002,10.4589844 C203.618293,11.2253289 203.205438,12.5043688 203.205438,14.296104 L203.205438,24.3827097 L200.242599,24.3827097 L200.242599,13.0656353 C200.242599,11.8891345 200.102282,11.0310444 199.821649,10.4913651 C199.379112,9.68184622 198.553403,9.27708676 197.344521,9.27708676 C196.243575,9.27708676 195.24247,9.70343339 194.341206,10.5561266 C193.439941,11.4088199 192.989309,12.9523026 192.989309,15.1865748 L192.989309,24.3827097 L190.075041,24.3827097 L190.075041,7.04281456 Z" id="Path"></path>
                <path d="M219.930099,19.7684519 C219.930099,20.6103516 220.237716,21.2741571 220.85295,21.7598684 C221.468185,22.2455798 222.196752,22.4884354 223.038651,22.4884354 C224.064042,22.4884354 225.057052,22.2509766 226.017681,21.7760588 C227.636719,20.9881271 228.446238,19.6982936 228.446238,17.9065584 L228.446238,15.5589535 C228.090049,15.7856188 227.631322,15.9745066 227.070055,16.1256168 C226.508789,16.276727 225.958316,16.3846628 225.418637,16.4494243 L223.653886,16.6760896 C222.596114,16.8164062 221.802786,17.0376748 221.2739,17.3398951 C220.378032,17.8471937 219.930099,18.6567126 219.930099,19.7684519 Z M226.989104,13.8751542 C227.658306,13.7888055 228.10624,13.5081723 228.332905,13.0332545 C228.462428,12.7742085 228.52719,12.4018298 228.52719,11.9161184 C228.52719,10.9231086 228.1737,10.2026367 227.46672,9.75470292 C226.75974,9.30676912 225.747841,9.08280222 224.431024,9.08280222 C222.909128,9.08280222 221.82977,9.49295847 221.192948,10.313271 C220.83676,10.7666016 220.604698,11.4412007 220.496762,12.3370683 L217.776778,12.3370683 C217.830746,10.1999383 218.524234,8.71312192 219.857242,7.87661904 C221.19025,7.04011616 222.736431,6.62186472 224.495785,6.62186472 C226.535773,6.62186472 228.192588,7.0104338 229.466231,7.78757196 C230.729081,8.56471011 231.360506,9.77359169 231.360506,11.4142167 L231.360506,21.4036801 C231.360506,21.7059005 231.422569,21.9487562 231.546695,22.1322471 C231.670821,22.3157381 231.932566,22.4074836 232.331928,22.4074836 C232.461451,22.4074836 232.607165,22.3993884 232.769069,22.383198 C232.930972,22.3670076 233.10367,22.342722 233.287161,22.3103413 L233.287161,24.4636616 C232.83383,24.5931846 232.488435,24.6741365 232.250977,24.7065173 C232.013518,24.738898 231.68971,24.7550884 231.279554,24.7550884 C230.27575,24.7550884 229.547183,24.3989001 229.093853,23.6865234 C228.856394,23.3087479 228.689093,22.7744655 228.591951,22.083676 C227.998304,22.8608141 227.145611,23.5354132 226.033871,24.1074733 C224.922132,24.6795333 223.69706,24.9655633 222.358655,24.9655633 C220.750411,24.9655633 219.436292,24.4771536 218.416298,23.5003341 C217.396304,22.5235146 216.886308,21.301141 216.886308,19.8332134 C216.886308,18.2249692 217.388209,16.97831 218.392013,16.093236 C219.395816,15.208162 220.712634,14.6630859 222.342465,14.4580078 L226.989104,13.8751542 Z" id="Shape"></path>
                <path d="M237.98237,15.9151419 C237.98237,17.7716386 238.376336,19.3259149 239.164268,20.5779708 C239.9522,21.8300267 241.215049,22.4560547 242.952817,22.4560547 C244.302015,22.4560547 245.411056,21.8758995 246.279939,20.715589 C247.148823,19.5552786 247.583265,17.890368 247.583265,15.7208573 C247.583265,13.5297595 247.135331,11.9080232 246.239463,10.8556486 C245.343596,9.80327405 244.237253,9.27708676 242.920436,9.27708676 C241.452508,9.27708676 240.262515,9.83835321 239.350457,10.9608861 C238.438399,12.083419 237.98237,13.7348376 237.98237,15.9151419 Z M242.369963,6.73519737 C243.697574,6.73519737 244.809313,7.01583059 245.705181,7.57709704 C246.223273,7.9009046 246.811523,8.46756784 247.469932,9.27708676 L247.469932,0.518092105 L250.270868,0.518092105 L250.270868,24.3827097 L247.648026,24.3827097 L247.648026,21.9703433 C246.96803,23.0389083 246.163908,23.8106497 245.23566,24.2855674 C244.307412,24.7604852 243.244243,24.9979441 242.046155,24.9979441 C240.114104,24.9979441 238.441098,24.1857268 237.027138,22.5612921 C235.613178,20.9368575 234.906199,18.775442 234.906199,16.0770456 C234.906199,13.5513466 235.551115,11.3629472 236.840949,9.51184724 C238.130782,7.66074733 239.973787,6.73519737 242.369963,6.73519737 Z" id="Shape"></path>
                <path d="M256.309879,18.9427426 C256.396227,19.9141653 256.639083,20.6589227 257.038446,21.1770148 C257.77241,22.1160567 259.046053,22.5855777 260.859375,22.5855777 C261.938734,22.5855777 262.888569,22.3508172 263.708882,21.8812963 C264.529194,21.4117753 264.93935,20.6859067 264.93935,19.7036904 C264.93935,18.958933 264.610146,18.3922697 263.951737,18.0037007 C263.530787,17.7662418 262.699681,17.4910053 261.458419,17.1779914 L259.143195,16.5951377 C257.664474,16.2281558 256.574322,15.8179996 255.872738,15.364669 C254.620683,14.5767373 253.994655,13.4865851 253.994655,12.0942126 C253.994655,10.4535876 254.585603,9.12597656 255.767501,8.11137952 C256.949399,7.09678248 258.538754,6.58948396 260.535567,6.58948396 C263.147615,6.58948396 265.031096,7.35582854 266.186009,8.88851768 C266.90918,9.85994038 267.259971,10.9069182 267.238384,12.0294511 L264.48602,12.0294511 C264.432052,11.3710424 264.19999,10.7719984 263.789833,10.2323191 C263.120631,9.46597451 261.960321,9.08280222 260.308902,9.08280222 C259.207956,9.08280222 258.374152,9.29327714 257.807489,9.71422697 C257.240825,10.1351768 256.957494,10.6910465 256.957494,11.3818359 C256.957494,12.1373869 257.329873,12.7418277 258.07463,13.1951583 C258.506373,13.4649979 259.143195,13.7024568 259.985095,13.9075349 L261.91175,14.3770559 C264.005705,14.8843544 265.408871,15.3754626 266.121248,15.8503803 C267.254574,16.5951377 267.821238,17.7662418 267.821238,19.3636924 C267.821238,20.9071752 267.235686,22.240183 266.064582,23.3627159 C264.893478,24.4852488 263.109838,25.0465152 260.713662,25.0465152 C258.133995,25.0465152 256.30718,24.4609632 255.233219,23.2898592 C254.159257,22.1187551 253.584498,20.6697163 253.508943,18.9427426 L256.309879,18.9427426 Z" id="Path"></path>
            </g>
        </g>
    </g>
</svg>