<?xml version="1.0" encoding="UTF-8"?>
<svg width="1237px" height="400px" viewBox="0 0 1237 400" version="1.1" xmlns="http://www.w3.org/2000/svg" xmlns:xlink="http://www.w3.org/1999/xlink">
    <title>humanstxt</title>
    <g id="humanstxt" stroke="none" stroke-width="1" fill="none" fill-rule="evenodd">
        <rect id="Rectangle" stroke="#E64B07" stroke-width="3" fill="#FFFFFF" x="1.5" y="1.5" width="1234" height="397" rx="50"></rect>
        <g id="project-humanstxt" transform="translate(50.000000, 50.000000)" fill-rule="nonzero">
            <g id="Group" transform="translate(56.509095, 230.813444)" fill="#5D5D5D">
                <path d="M16.0650337,53.8616403 L22.4138621,53.8616403 L33.4240476,16.3245048 C33.938613,14.4823309 34.3850741,12.7349191 34.7520806,11.0784788 C35.1228701,9.42203851 35.3196156,8.53885638 35.3347499,8.42514195 L35.4898766,8.42514195 C35.5050108,8.54264687 35.6828382,9.44099091 36.0233597,11.1125931 C36.3638807,12.7955668 36.7725064,14.5543501 37.249236,16.4003144 L47.2681265,53.8616403 L53.6131714,53.8616403 L66.0043596,6.43513931 C66.1935382,5.72252884 66.518925,5.26388062 66.9880877,5.04403271 C67.4534665,4.82797528 68.0701885,4.7218418 68.8344695,4.74837517 L69.6744217,4.74837517 L69.6744217,0.00648317228 L67.3021241,0.00648317228 C65.4179064,-0.0465835647 63.9687995,0.226331083 62.9623703,0.817646152 C61.9559411,1.40896122 61.2370628,2.61812473 60.8019525,4.43755571 L51.4716717,41.610805 C51.1197995,43.0587688 50.8322485,44.3589039 50.6014506,45.5187911 C50.3782201,46.6786784 50.2571457,47.2927363 50.2495788,47.360965 L50.0944526,47.360965 C50.0906687,47.2927363 49.984729,46.6786784 49.7690654,45.5187911 C49.5534021,44.3589039 49.2582838,43.0587688 48.8723597,41.610805 L38.0891882,0.233912045 L32.8111094,0.233912045 L20.9609717,41.610805 C20.5674807,43.0587688 20.2269592,44.3589039 19.9469752,45.5187911 C19.6632077,46.6786784 19.5156483,47.2927363 19.5080814,47.360965 L19.3529551,47.360965 C19.3453878,47.2927363 19.2394477,46.6786784 19.0389187,45.5187911 C18.8308224,44.3589039 18.5546218,43.0587688 18.2065334,41.610805 L8.8762527,4.43755571 C8.44114193,2.61812473 7.7222641,1.40896122 6.71583486,0.817646152 C5.70562174,0.226331083 4.26029829,-0.0465835647 2.37608106,0.00648317228 L3.12266538e-14,0.00648317228 L3.12266538e-14,4.74837517 L0.923190707,4.74837517 C1.65341933,4.7218418 2.25500715,4.82797528 2.7355202,5.04403271 C3.21981713,5.26388062 3.56033814,5.72252884 3.74951677,6.43513931 L16.0650337,53.8616403 Z" id="Path"></path>
                <path d="M103.964907,23.3179426 C102.754165,20.6456534 100.953186,18.5040315 98.558187,16.8892865 C96.1707547,15.278332 93.2006531,14.4520071 89.6516653,14.4103118 C86.1594315,14.4254737 82.9925844,15.2366367 80.1397733,16.8438007 C77.2869622,18.4509648 75.009254,20.7555773 73.3066476,23.7652194 C71.6040416,26.7824425 70.7262536,30.3985615 70.6884183,34.6325291 C70.8132761,40.6707656 72.742896,45.5150006 76.4697112,49.165234 C80.1927434,52.811677 84.971391,54.6841747 90.798087,54.7827272 C93.7227859,54.7144985 96.2502097,54.2406884 98.3803591,53.3575063 C100.514292,52.4705337 102.163928,51.583561 103.325484,50.7041694 C104.490823,49.8171968 105.08106,49.3433867 105.096194,49.275158 L102.576337,45.3633814 C102.564986,45.4202386 102.088257,45.833401 101.146148,46.5952878 C100.204039,47.360965 98.8722229,48.1228517 97.1506993,48.8847384 C95.4253918,49.6504156 93.3860479,50.0597876 91.0288845,50.1204353 C86.9350633,50.086321 83.4730975,48.7482811 80.6392045,46.1025252 C77.809095,43.4529788 76.2956672,39.68145 76.1064886,34.7841483 L105.629677,34.7841483 C105.637244,34.7310816 105.659946,34.4126812 105.705349,33.828947 C105.750751,33.2414225 105.777236,32.6955932 105.78102,32.1838782 C105.78102,28.9468072 105.175649,25.9940224 103.964907,23.3179426 M76.3372865,30.6563143 C77.0599482,26.7748615 78.6339129,23.8220766 81.0591806,21.8093311 C83.4882317,19.7965856 86.3221251,18.7807366 89.5722107,18.7693543 C92.4855587,18.7655747 94.9637965,19.7510998 97.0144907,21.72215 C99.0689685,23.6894098 100.204039,26.6725185 100.438621,30.6563143 L76.3372865,30.6563143 Z" id="Shape"></path>
                <path d="M178.648774,49.1235387 C177.929896,49.1387007 177.358577,49.0439386 176.923466,48.8278812 C176.495923,48.6042428 176.155402,48.1418041 175.894336,47.4329841 L158.308307,0.00648317228 L152.572417,0.00648317228 L134.982605,47.4329841 C134.717755,48.1418041 134.365883,48.6042428 133.923206,48.8278812 C133.476745,49.0439386 132.912993,49.1387007 132.228167,49.1235387 L131.236872,49.1235387 L131.236872,53.8616403 L133.760512,53.8616403 C135.60311,53.907126 136.957628,53.6266304 137.812715,53.0201534 C138.664017,52.4174669 139.401813,51.2196749 140.029886,49.4305677 L144.770698,36.6983413 L166.106243,36.6983413 L170.771383,49.4305677 C171.395672,51.2196749 172.148602,52.4174669 173.030174,53.0201534 C173.900395,53.6266304 175.266263,53.907126 177.116428,53.8616403 L179.564397,53.8616403 L179.564397,49.1235387 L178.648774,49.1235387 Z M146.223588,32.0360494 L153.261026,12.7955668 C153.571279,11.9085942 153.889099,10.9344405 154.199352,9.86552481 C154.513388,8.78902814 154.782021,7.85656977 154.990117,7.06435919 C155.205781,6.27214862 155.315504,5.85519569 155.323071,5.82108135 L155.474414,5.82108135 C155.485765,5.85519569 155.599272,6.27214862 155.807368,7.06435919 C156.023032,7.85656977 156.287882,8.78902814 156.594351,9.86552481 C156.91217,10.9344405 157.22999,11.9085942 157.540243,12.7955668 L164.653352,32.0360494 L146.223588,32.0360494 Z" id="Shape"></path>
                <path d="M187.305579,53.8616403 L192.496636,53.8616403 L192.496636,37.6194283 C192.492853,36.3837314 192.576091,35.1328726 192.746352,33.8630614 C192.912829,32.5932502 193.189029,31.3461818 193.567386,30.110485 C194.426256,27.2145573 195.818609,24.8455066 197.744446,23.0033327 C199.666499,21.1611588 201.997178,20.2059576 204.732698,20.1453099 C205.247263,20.1528908 205.689941,20.1794242 206.06073,20.2211195 C206.43152,20.2703957 206.628266,20.2931386 206.647184,20.3045101 L206.647184,15.1797795 C206.628266,15.168408 206.416386,15.1305032 206.015328,15.0622746 C205.614269,14.9940459 205.133756,14.9561411 204.581355,14.9485601 C201.543149,15.0129983 198.98924,15.9947329 196.923412,17.893764 C194.853799,19.7965856 193.351722,22.2300745 192.417181,25.2056023 L192.265838,25.2056023 C192.273405,25.1866499 192.296107,24.8985733 192.345293,24.352744 C192.386912,23.8031242 192.413398,23.1208376 192.417181,22.2945127 L192.417181,19.6866616 C192.428532,18.1666787 192.046391,17.0598582 191.293461,16.3586191 C190.536747,15.6687515 189.360057,15.3200273 187.767175,15.3313987 L182.409641,15.3313987 L182.409641,19.8420714 L185.621891,19.8420714 C186.162941,19.8420714 186.575351,19.9899001 186.862902,20.2817672 C187.154237,20.5736342 187.301796,20.9867967 187.305579,21.5288355 L187.305579,53.8616403 Z" id="Path"></path>
                <path d="M243.374287,23.3179426 C242.163545,20.6456534 240.362566,18.5040315 237.971351,16.8892865 C235.580135,15.278332 232.60625,14.4520071 229.061046,14.4103118 C225.572596,14.4254737 222.401965,15.2366367 219.549154,16.8438007 C216.70391,18.4509648 214.422418,20.7555773 212.719812,23.7652194 C211.013422,26.7824425 210.143201,30.3985615 210.097799,34.6325291 C210.22644,40.6707656 212.148493,45.5150006 215.879092,49.165234 C219.605907,52.811677 224.384555,54.6841747 230.207467,54.7827272 C233.132166,54.7144985 235.659591,54.2406884 237.789739,53.3575063 C239.927456,52.4705337 241.573309,51.583561 242.738648,50.7041694 C243.903987,49.8171968 244.494224,49.3433867 244.505574,49.275158 L241.989501,45.3633814 C241.97815,45.4202386 241.501421,45.833401 240.559312,46.5952878 C239.617204,47.360965 238.285387,48.1228517 236.556296,48.8847384 C234.842339,49.6504156 232.795429,50.0597876 230.438265,50.1204353 C226.348227,50.086321 222.882478,48.7482811 220.056152,46.1025252 C217.218475,43.4529788 215.708831,39.68145 215.515869,34.7841483 L245.039058,34.7841483 C245.046625,34.7310816 245.07311,34.4126812 245.114729,33.828947 C245.163916,33.2414225 245.186617,32.6955932 245.194184,32.1838782 C245.190401,28.9468072 244.585029,25.9940224 243.374287,23.3179426 M215.746667,30.6563143 C216.473112,26.7748615 218.047077,23.8220766 220.472345,21.8093311 C222.901396,19.7965856 225.735289,18.7807366 228.985375,18.7693543 C231.894939,18.7655747 234.37696,19.7510998 236.423871,21.72215 C238.474566,23.6894098 239.617204,26.6725185 239.851785,30.6563143 L215.746667,30.6563143 Z" id="Shape"></path>
                <path d="M307.536049,4.38827946 C304.490276,1.51888518 300.52888,0.0595499093 295.651859,0.00269269107 L272.939095,0.00269269107 L272.939095,4.74458469 L277.910705,4.74458469 L277.910705,53.8654307 L283.256887,53.8654307 L283.256887,32.7145456 L295.651859,32.7145456 C300.52888,32.6538979 304.490276,31.1680292 307.536049,28.2493587 C310.581822,25.3268977 312.152003,21.3241495 312.242809,16.2449047 C312.152003,11.2073552 310.581822,7.25388325 307.536049,4.38827946 M303.525466,24.8682495 C301.421802,26.9075283 298.568991,27.9423297 294.967033,27.976444 L283.256887,27.976444 L283.256887,4.74458469 L295.042705,4.74458469 C298.61061,4.77111806 301.44072,5.77559558 303.533033,7.76559822 C305.629131,9.75181037 306.703664,12.5795094 306.749067,16.2449047 C306.703664,19.9519953 305.629131,22.8251801 303.525466,24.8682495" id="Shape"></path>
                <path d="M348.932077,23.3179426 C347.721335,20.6456534 345.92414,18.5040315 343.529141,16.8892865 C341.137925,15.278332 338.167823,14.4520071 334.615052,14.4103118 C331.130385,14.4254737 327.963538,15.2366367 325.110727,16.8438007 C322.257916,18.4509648 319.980208,20.7555773 318.273818,23.7652194 C316.571212,26.7824425 315.697207,30.3985615 315.655588,34.6325291 C315.780446,40.6707656 317.706283,45.5150006 321.436881,49.165234 C325.163697,52.811677 329.938561,54.6841747 335.769041,54.7827272 C338.693739,54.7144985 341.221163,54.2406884 343.347529,53.3575063 C345.481462,52.4705337 347.131098,51.583561 348.296437,50.7041694 C349.457993,49.8171968 350.052013,49.3433867 350.063364,49.275158 L347.539723,45.3633814 C347.532156,45.4202386 347.055427,45.833401 346.117101,46.5952878 C345.174993,47.360965 343.843177,48.1228517 342.117869,48.8847384 C340.396345,49.6504156 338.357001,50.0597876 335.996055,50.1204353 C331.902233,50.086321 328.444051,48.7482811 325.610158,46.1025252 C322.780049,43.4529788 321.266621,39.68145 321.077442,34.7841483 L350.600631,34.7841483 C350.608198,34.7310816 350.630899,34.4126812 350.676302,33.828947 C350.717922,33.2414225 350.74819,32.6955932 350.751973,32.1838782 C350.751973,28.9468072 350.142819,25.9940224 348.932077,23.3179426 M321.304457,30.6563143 C322.030902,26.7748615 323.604866,23.8220766 326.030134,21.8093311 C328.459185,19.7965856 331.293079,18.7807366 334.539381,18.7693543 C337.452729,18.7655747 339.93475,19.7510998 341.981661,21.72215 C344.032355,23.6894098 345.174993,26.6725185 345.409574,30.6563143 L321.304457,30.6563143 Z" id="Shape"></path>
                <path d="M395.398085,24.1442675 C393.593324,21.1459969 391.16049,18.7883176 388.103367,17.0522772 C385.046244,15.3313987 381.625894,14.4406356 377.830976,14.4141023 C374.066325,14.4406356 370.661113,15.3313987 367.61534,17.0522772 C364.569567,18.7883176 362.1443,21.1459969 360.339537,24.1442675 C358.538558,27.1425382 357.611584,30.5653427 357.566181,34.4051002 C357.611584,38.3244578 358.538558,41.815491 360.343321,44.8668283 C362.151867,47.9181657 364.584702,50.3251213 367.638042,52.0914855 C370.695165,53.8502688 374.115512,54.7448224 377.906648,54.7827272 C381.675084,54.7448224 385.080295,53.8502688 388.126066,52.0914855 C391.171842,50.3251213 393.597108,47.9181657 395.401869,44.8668283 C397.206631,41.815491 398.129825,38.3244578 398.175227,34.4051002 C398.129825,30.5653427 397.206631,27.1425382 395.398085,24.1442675 M388.440102,45.6249246 C385.621347,48.5284332 382.113976,50.0218828 377.906648,50.1204353 C373.669051,50.0218828 370.13898,48.5284332 367.312654,45.6249246 C364.486329,42.721416 363.018304,38.9840015 362.916148,34.4051002 C363.018304,29.9474943 364.486329,26.3086323 367.312654,23.5036762 C370.13898,20.6911392 373.669051,19.2393849 377.906648,19.1522038 C382.113976,19.2393849 385.621347,20.6911392 388.440102,23.5036762 C391.255078,26.3086323 392.719321,29.9474943 392.829045,34.4051002 C392.719321,38.9840015 391.255078,42.721416 388.440102,45.6249246" id="Shape"></path>
                <path d="M438.439969,20.0353859 C435.488781,16.381362 431.406312,14.5050738 426.192553,14.4141023 C422.821393,14.5050738 420.169111,15.1570366 418.235711,16.3737811 C416.294738,17.5905255 414.925085,18.80727 414.12297,20.0240145 C413.317068,21.2369685 412.931146,21.8927217 412.953845,21.9874837 L412.798719,21.9874837 C412.806287,21.9761123 412.821422,21.7335215 412.836558,21.2597113 C412.859257,20.7896917 412.878176,20.1604718 412.878176,19.3834231 C412.893307,18.0415928 412.537653,17.0333248 411.818775,16.3510382 C411.099898,15.672542 409.923209,15.3313987 408.296273,15.3313987 L403.018196,15.3313987 L403.018196,19.8382809 L406.23423,19.8382809 C406.76771,19.8420714 407.187686,19.9936906 407.471456,20.2855577 C407.762789,20.5698438 407.910347,20.9905872 407.914131,21.5288355 L407.914131,69.1865558 L413.105188,69.1865558 L413.105188,50.882322 C413.097624,49.8702635 413.071137,49.0591006 413.029519,48.4488331 C412.984116,47.8385656 412.961413,47.5277462 412.953845,47.5125842 L413.105188,47.5125842 C413.086273,47.6035558 413.483546,48.2289852 414.289448,49.3964534 C415.091562,50.5639216 416.423377,51.7313898 418.277329,52.8950675 C420.131276,54.0663262 422.609513,54.6917556 425.730958,54.7827272 C430.800943,54.7031271 434.906115,52.8723247 438.061611,49.2789485 C441.217106,45.6893628 442.844042,40.807223 442.931063,34.6325291 C442.881876,28.5639686 441.383584,23.6969908 438.439969,20.0353859 M433.945086,46.0949443 C431.606841,48.7899764 428.689708,50.1545496 425.193694,50.1962449 C422.514924,50.1469687 420.271267,49.3812915 418.45137,47.9030038 C416.631473,46.4171352 415.265608,44.5067326 414.342418,42.1642152 C413.423008,39.8254883 412.953845,37.3389326 412.953845,34.7121292 C413.071137,29.2689981 414.349982,25.3041548 416.779036,22.8213896 C419.21187,20.3386244 422.091164,19.114299 425.424489,19.1522038 C429.079418,19.209061 432.007898,20.6077486 434.206153,23.3596379 C436.404408,26.1077368 437.53191,29.8641037 437.592448,34.6325291 C437.501643,39.5753166 436.287116,43.3961216 433.945086,46.0949443" id="Shape"></path>
                <path d="M452.185673,49.1993484 C452.174321,50.8292553 452.541328,52.0194664 453.282909,52.7661912 C454.024489,53.5091255 455.212529,53.8730117 456.843245,53.8618987 L462.272669,53.8618987 L462.272669,49.3471771 L459.056636,49.3471771 C458.523151,49.3471771 458.106958,49.2145103 457.815625,48.9415956 C457.528072,48.6648905 457.380513,48.2365661 457.376729,47.667994 L457.376729,4.66877507 C457.384297,3.03886814 457.024858,1.84865704 456.279494,1.10572272 C455.534129,0.358997925 454.349873,-0.00488827136 452.719157,0.00622475675 L447.289734,0.00622475675 L447.289734,4.51336534 L450.501983,4.51336534 C451.039251,4.5209463 451.455444,4.66877507 451.746777,4.95685164 C452.038115,5.24492821 452.181889,5.66188114 452.185673,6.20391996 L452.185673,49.1993484 Z" id="Path"></path>
                <path d="M500.751564,23.3179426 C499.544605,20.6456534 497.739843,18.5040315 495.348628,16.8892865 C492.957412,15.278332 489.987309,14.4520071 486.43832,14.4103118 C482.953657,14.4254737 479.783026,15.2366367 476.930216,16.8438007 C474.077401,18.4509648 471.799693,20.7555773 470.093304,23.7652194 C468.394483,26.7824425 467.512911,30.3985615 467.475077,34.6325291 C467.599932,40.6707656 469.525769,45.5150006 473.256367,49.165234 C476.983181,52.811677 481.761829,54.6841747 487.588526,54.7827272 C490.509442,54.7144985 493.036865,54.2406884 495.167014,53.3575063 C497.304731,52.4705337 498.950587,51.583561 500.115923,50.7041694 C501.281265,49.8171968 501.871499,49.3433867 501.88285,49.275158 L499.362995,45.3633814 C499.351644,45.4202386 498.878697,45.833401 497.936588,46.5952878 C496.994479,47.360965 495.662664,48.1228517 493.937356,48.8847384 C492.215831,49.6504156 490.172707,50.0597876 487.815542,50.1204353 C483.717937,50.086321 480.259752,48.7482811 477.433429,46.1025252 C474.59575,43.4529788 473.08611,39.68145 472.893144,34.7841483 L502.420119,34.7841483 C502.423902,34.7310816 502.450385,34.4126812 502.495788,33.828947 C502.54119,33.2414225 502.563893,32.6955932 502.571461,32.1838782 C502.567677,28.9468072 501.962308,25.9940224 500.751564,23.3179426 M473.123944,30.6563143 C473.850389,26.7748615 475.420571,23.8220766 477.845838,21.8093311 C480.278672,19.7965856 483.112563,18.7807366 486.362651,18.7693543 C489.268432,18.7655747 491.750452,19.7510998 493.804933,21.72215 C495.851841,23.6894098 496.994479,26.6725185 497.225278,30.6563143 L473.123944,30.6563143 Z" id="Shape"></path>
                <polygon id="Path" points="512.442793 47.5883938 508.087905 61.2947739 512.442793 61.2947739 518.023554 47.5883938"></polygon>
                <path d="M546.797596,53.8618987 L552.454031,53.8618987 C554.084751,53.8730117 555.272791,53.5091255 556.018156,52.7661912 C556.755953,52.0194664 557.122955,50.8292553 557.111607,49.1993484 L557.111607,15.475437 C557.092688,13.9478731 557.017019,12.4316806 556.884592,10.9230691 C556.748385,9.42203851 556.672711,8.61466601 556.657576,8.50474205 L556.808923,8.50474205 C556.827838,8.53885638 557.069989,8.95201884 557.535368,9.72906749 C557.996963,10.5099066 558.568282,11.4385745 559.245541,12.5112807 C559.919016,13.5839869 560.588707,14.569512 561.247047,15.475437 L588.711973,53.8618987 L593.59656,53.8618987 L593.59656,6.43513931 C593.600344,5.85519569 593.747903,5.43824275 594.035456,5.15774714 C594.326789,4.88104201 594.742982,4.74458469 595.284034,4.74837517 L598.564389,4.74837517 L598.564389,0.00622475675 L592.911733,0.00622475675 C591.277234,-0.00488827136 590.092978,0.358997925 589.351397,1.10572272 C588.602249,1.84865704 588.239026,3.03886814 588.254162,4.66877507 L588.254162,38.3926864 C588.269297,39.9278313 588.329835,41.4553952 588.443338,42.9829592 C588.556846,44.5067326 588.617384,45.3254766 588.636304,45.4429815 L588.481177,45.4429815 C588.416856,45.3178956 587.917426,44.4764088 586.990448,42.926102 C586.063474,41.3682142 585.110018,39.8596027 584.122506,38.3926864 L556.657576,0.00622475675 L551.769209,0.00622475675 L551.769209,47.4367746 C551.765425,48.0091373 551.621646,48.4336712 551.330313,48.7103763 C551.03898,48.9870814 550.622787,49.1235387 550.085519,49.1235387 L546.797596,49.1235387 L546.797596,53.8618987 Z" id="Path"></path>
                <path d="M642.385683,24.1442675 C640.577138,21.1459969 638.144304,18.7883176 635.09096,17.0522772 C632.030053,15.3313987 628.609708,14.4406356 624.818572,14.4141023 C621.050139,14.4406356 617.648708,15.3313987 614.599153,17.0522772 C611.553382,18.7883176 609.124327,21.1459969 607.327133,24.1442675 C605.522372,27.1425382 604.595394,30.5653427 604.549992,34.4051002 C604.595394,38.3244578 605.522372,41.815491 607.330917,44.8668283 C609.135679,47.9181657 611.568513,50.3251213 614.621852,52.0914855 C617.678979,53.8502688 621.103109,54.7448224 624.890461,54.7827272 C628.658894,54.7448224 632.067892,53.8502688 635.10988,52.0914855 C638.155651,50.3251213 640.580922,47.9181657 642.385683,44.8668283 C644.186661,41.815491 645.113634,38.3244578 645.159037,34.4051002 C645.113634,30.5653427 644.186661,27.1425382 642.385683,24.1442675 M635.423916,45.6249246 C632.605156,48.5284332 629.09779,50.0218828 624.890461,50.1204353 C620.656645,50.0218828 617.122792,48.5284332 614.296468,45.6249246 C611.47014,42.721416 610.005898,38.9840015 609.896174,34.4051002 C610.005898,29.9474943 611.47014,26.3086323 614.296468,23.5036762 C617.122792,20.6911392 620.656645,19.2393849 624.890461,19.1522038 C629.09779,19.2393849 632.605156,20.6911392 635.423916,23.5036762 C638.242676,26.3086323 639.703134,29.9474943 639.812854,34.4051002 C639.703134,38.9840015 638.242676,42.721416 635.423916,45.6249246" id="Shape"></path>
                <path d="M655.355756,39.8482312 C655.442777,44.0784082 656.267599,47.2169267 657.837776,49.2789485 C659.407959,51.3409703 661.231639,52.6828006 663.293683,53.315811 C665.359515,53.9488213 667.16806,54.2293169 668.734458,54.1686692 C669.396582,54.1610883 669.926282,54.1383454 670.32734,54.0928596 C670.732181,54.0473738 670.944061,54.0208405 670.951629,54.01705 L670.951629,49.3471771 C670.944061,49.3585486 670.785151,49.3812915 670.471114,49.4305677 C670.160862,49.472263 669.733317,49.4987964 669.19227,49.5025869 C668.170703,49.5480726 666.994015,49.3358057 665.658416,48.873367 C664.326597,48.4071378 663.153692,47.4405651 662.147261,45.9736489 C661.137051,44.5067326 660.603566,42.2855106 660.550596,39.3099829 L660.550596,19.6866616 L670.183565,19.6866616 L670.183565,15.3313987 L660.550596,15.3313987 L660.550596,4.68014651 L655.435213,4.68014651 L655.435213,15.3313987 L650.304691,15.3313987 L650.304691,19.6866616 L655.355756,19.6866616 L655.355756,39.8482312 Z" id="Path"></path>
                <path d="M696.320456,53.8618987 L701.443411,53.8618987 C703.062779,53.8730117 704.216764,53.5091255 704.924294,52.7661912 C705.620468,52.0194664 706.017746,50.8292553 706.108551,49.1993484 L708.632189,16.4799145 C708.704079,15.467856 708.760833,14.3761975 708.791099,13.1973578 C708.82137,12.0223086 708.844069,11.0140406 708.851637,10.1611823 C708.859205,9.30453359 708.859205,8.86104729 708.859205,8.81935199 L709.014331,8.81935199 C709.025683,8.86483777 709.180809,9.323486 709.472142,10.2066681 C709.771043,11.0898502 710.134266,12.1246516 710.565594,13.2997008 C710.996922,14.4823309 711.424466,15.5436657 711.844443,16.4799145 L724.538314,43.824446 L729.35858,43.824446 L742.124345,16.4799145 C742.567021,15.5209228 743.002133,14.4633785 743.418325,13.3072818 C743.834518,12.1549755 744.182605,11.1504979 744.451239,10.3014301 C744.727437,9.45615284 744.871216,9.01266654 744.882563,8.97097124 L745.03391,8.97097124 C745.030126,9.00887606 745.03391,9.44478139 745.041473,10.2711063 C745.049041,11.0974312 745.064176,12.0867468 745.098227,13.2390531 C745.132282,14.3913594 745.185252,15.4716465 745.260921,16.4799145 L747.784564,49.1993484 C747.875369,50.8292553 748.272642,52.0194664 748.96882,52.7661912 C749.672562,53.5091255 750.830335,53.8730117 752.449704,53.8618987 L757.648328,53.8618987 L757.648328,49.1235387 L754.742547,49.1235387 C754.209063,49.1235387 753.808006,48.9832909 753.531804,48.7103763 C753.251818,48.4336712 753.100476,48.0091373 753.058857,47.4329841 L749.30934,0.00648317228 L743.883704,0.00648317228 L729.657485,31.3461818 C729.014277,32.8168886 728.431606,34.2231571 727.901906,35.5574065 C727.37221,36.8992368 727.096008,37.6156378 727.061957,37.7066093 L726.91061,37.7066093 C726.87656,37.6156378 726.596578,36.8992368 726.05931,35.5574065 C725.518258,34.2231571 724.909104,32.8168886 724.231845,31.3461818 L710.005627,0.00648317228 L704.579987,0.00648317228 L700.830474,47.4329841 C700.792635,48.0091373 700.637508,48.4336712 700.357527,48.7103763 C700.085109,48.9832909 699.680268,49.1235387 699.146784,49.1235387 L696.320456,49.1235387 L696.320456,53.8618987 Z" id="Path"></path>
                <path d="M794.931615,49.3509676 C794.394347,49.3509676 793.978154,49.2145103 793.686821,48.9415956 C793.399268,48.6648905 793.251709,48.2365661 793.251709,47.6642035 L793.251709,29.196979 C793.28576,26.4109753 792.884703,23.9054672 792.04475,21.6842452 C791.201017,19.4592328 789.691373,17.70424 787.493118,16.4041049 C785.306215,15.1039698 782.199905,14.4406356 778.181754,14.4103118 C776.971015,14.3913594 775.385697,14.5581406 773.437161,14.9068648 C771.488621,15.2593796 769.725478,15.9037614 768.147728,16.8475912 C766.573766,17.791421 765.737597,19.1522038 765.650576,20.918568 L765.650576,24.5953348 L770.607049,24.5953348 L770.607049,22.1428935 C770.663803,21.2104351 771.1708,20.4978246 772.124261,20.0088525 C773.085286,19.51609 774.144687,19.1863181 775.310028,19.011956 C776.482932,18.8375938 777.409906,18.7579937 778.109868,18.7693652 C781.602099,18.7162984 784.140878,19.5236709 785.726191,21.1914827 C787.303941,22.8592944 788.083356,25.6832029 788.056869,29.6594177 L788.056869,30.1218564 L785.911584,30.1218564 C784.178712,30.0839516 782.014512,30.1749232 779.422764,30.3909806 C776.831019,30.6032475 774.239275,31.1225435 771.639963,31.9488684 C769.040651,32.7714028 766.861315,34.0942807 765.101956,35.9023403 C763.338814,37.7179808 762.426975,40.2045364 762.35887,43.3733787 C762.396704,45.9243726 763.051264,48.0470421 764.318757,49.7375967 C765.582471,51.4243608 767.201839,52.6903816 769.180646,53.5242874 C771.163233,54.3657743 773.244196,54.7827272 775.431099,54.7827272 C778.624433,54.6803842 781.166992,53.9601928 783.043642,52.6183624 C784.927856,51.284113 786.271027,49.9422827 787.069357,48.6042428 C787.87526,47.2624125 788.253614,46.5384306 788.211995,46.439878 L788.363338,46.439878 C788.359554,46.4512495 788.348206,46.7127927 788.321719,47.2245077 C788.29902,47.7324321 788.287669,48.4185092 788.283885,49.275158 C788.268749,50.8368362 788.624404,51.992933 789.347065,52.7434483 C790.065943,53.4977541 791.238852,53.8692212 792.869572,53.8654307 L798.143865,53.8654307 L798.143865,49.3509676 L794.931615,49.3509676 Z M788.056869,36.0084737 C788.045517,38.2827625 787.572571,40.5153559 786.63425,42.6948826 C785.695924,44.8706188 784.348974,46.6748879 782.589611,48.1152707 C780.834036,49.5518631 778.72659,50.2947974 776.271052,50.3516547 C773.403106,50.2682641 771.257825,49.5063773 769.835202,48.054623 C768.408794,46.6066592 767.697485,44.942638 767.701254,43.0625593 C767.814776,40.2272793 768.930927,38.18421 771.061076,36.9295607 C773.187442,35.6749114 775.650547,34.8978627 778.446604,34.6097862 C781.246444,34.3141286 783.713334,34.1966237 785.839699,34.2496905 L788.056869,34.2496905 L788.056869,36.0084737 Z" id="Shape"></path>
                <path d="M802.839276,34.6325291 C802.964131,40.70488 804.893751,45.5604864 808.628134,49.1955579 C812.3663,52.8268389 817.163867,54.6879652 823.028398,54.7827272 C826.3201,54.7031271 829.082106,54.1610883 831.318196,53.1566108 C833.550501,52.1483427 835.237975,51.1438652 836.376829,50.1318067 C837.515683,49.1311197 838.079434,48.5890809 838.087002,48.5094808 L835.642816,44.5977042 C835.635248,44.6659328 835.15095,45.1359525 834.178574,46.0115537 C833.213766,46.8833643 831.81763,47.755175 829.971246,48.6269857 C828.12865,49.5025869 825.888776,49.9726065 823.259193,50.0408352 C819.078352,49.9953494 815.552066,48.6118238 812.676552,45.9016297 C809.801043,43.1914356 808.302745,39.4312783 808.181674,34.6325291 C808.287614,29.898218 809.740505,26.1342702 812.544129,23.3482665 C815.347754,20.5660533 818.866472,19.1370419 823.104067,19.0763942 C824.224006,19.0763942 825.461232,19.2469658 826.81575,19.5918996 C828.166484,19.9368334 829.343173,20.4637103 830.330684,21.1649493 C831.337115,21.8661883 831.85168,22.7531609 831.900866,23.8296576 L831.900866,26.0470891 L836.789238,26.0470891 L836.789238,22.6015417 C836.698433,20.4978246 835.835777,18.8489653 834.208845,17.6549637 C832.578125,16.4571716 830.709042,15.6156848 828.590245,15.1229223 C826.475227,14.6301597 824.647766,14.3951499 823.104067,14.4141023 C817.235752,14.5164453 812.423053,16.4116859 808.669752,20.0960336 C804.905103,23.7841718 802.967915,28.6321973 802.839276,34.6325291" id="Path"></path>
                <path d="M846.354101,53.8618987 L851.545157,53.8618987 L851.545157,35.4057872 C851.537589,34.4771193 851.582992,33.5825658 851.67758,32.718336 C851.768385,31.8503158 851.931079,31.0353624 852.158095,30.2658947 C853.103988,26.9909189 854.833076,24.360325 857.341583,22.3703223 C859.853874,20.3803197 862.767223,19.3568898 866.085412,19.3076135 C869.717638,19.406166 872.0521,20.5471009 873.103933,22.7417895 C874.151983,24.9402686 874.617362,27.6011864 874.50007,30.7245429 L874.50007,49.1993484 C874.488718,50.8292553 874.855725,52.0194664 875.597305,52.7661912 C876.342666,53.5091255 877.526926,53.8730117 879.153858,53.8618987 L884.583282,53.8618987 L884.583282,49.3471771 L881.374812,49.3471771 C880.837548,49.3471771 880.417571,49.2145103 880.126234,48.9415956 C879.838685,48.6648905 879.691126,48.2365661 879.691126,47.667994 L879.691126,29.3485982 C879.74788,24.565011 878.790635,20.8882442 876.819396,18.3182979 C874.840589,15.7407707 871.488349,14.4368452 866.770239,14.4103118 C863.887157,14.4633785 861.397569,15.0167888 859.309038,16.074333 C857.20916,17.1318773 855.517902,18.3941075 854.216354,19.8648143 C852.91859,21.3317305 852.029451,22.7076752 851.545157,23.9812768 L851.390031,23.9812768 C851.397599,23.9623244 851.420298,23.6590859 851.4657,23.0677709 C851.514886,22.4840368 851.537589,21.737312 851.545157,20.8389679 L851.545157,4.51336534 C851.556509,2.95926804 851.189502,1.81075223 850.451706,1.08677032 C849.702557,0.358997925 848.514517,-0.00488827136 846.891365,0.00622469082 L841.458162,0.00622469082 L841.458162,4.51336534 L844.670411,4.51336534 C845.211463,4.5209463 845.620088,4.66877507 845.911421,4.95685164 C846.202759,5.24492821 846.350317,5.66188114 846.354101,6.20391996 L846.354101,53.8618987 Z" id="Path"></path>
                <polygon id="Path" points="893.020638 0.00648317228 898.064136 0.00648317228 898.064136 6.58675856 893.020638 6.58675856"></polygon>
                <path d="M893.175764,49.1993484 C893.164412,50.8292553 893.527635,52.0194664 894.276784,52.7661912 C895.01458,53.5091255 896.206404,53.8730117 897.83334,53.8618987 L903.26276,53.8618987 L903.26276,49.3471771 L900.05051,49.3471771 C899.509458,49.3471771 899.100833,49.2145103 898.8095,48.9415956 C898.521947,48.6648905 898.370604,48.2365661 898.370604,47.667994 L898.370604,19.9936906 C898.374388,18.3599932 898.01495,17.1735726 897.265801,16.4306383 C896.528009,15.6839135 895.343748,15.3200273 893.716816,15.3311403 L888.279829,15.3311403 L888.279829,19.8420714 L891.492079,19.8420714 C892.03691,19.8420714 892.445535,19.9899001 892.740656,20.2817672 C893.020638,20.5736342 893.17198,20.9867967 893.175764,21.5288355 L893.175764,49.1993484 Z" id="Path"></path>
                <path d="M911.957403,53.8618987 L917.148459,53.8618987 L917.148459,35.4057872 C917.148459,34.4809098 917.193862,33.5825658 917.28845,32.7069646 C917.379255,31.8351539 917.534381,30.9936671 917.76518,30.1900851 C918.70729,26.9530141 920.436378,24.3413726 922.960021,22.3627414 C925.479875,20.3803197 928.415927,19.3568898 931.768167,19.3076135 C935.362559,19.406166 937.678101,20.5471009 938.718583,22.7417895 C939.762848,24.9402686 940.224443,27.6011864 940.103372,30.7245429 L940.103372,49.1993484 C940.099588,50.8292553 940.459027,52.0194664 941.200607,52.7661912 C941.949751,53.5091255 943.137792,53.8730117 944.760944,53.8618987 L950.197931,53.8618987 L950.197931,49.3471771 L946.985682,49.3471771 C946.44085,49.3471771 946.024657,49.2145103 945.737104,48.9415956 C945.445771,48.6648905 945.301996,48.2365661 945.298212,47.667994 L945.298212,29.3485982 C945.351182,24.565011 944.397721,20.8882442 942.422698,18.3182979 C940.451459,15.7407707 937.095435,14.4368452 932.381105,14.4103118 C929.376952,14.467169 926.815478,15.0471126 924.704244,16.1501427 C922.593014,17.2531727 920.909324,18.5457268 919.653179,20.0467573 C918.393253,21.5402069 917.530597,22.9047802 917.072786,24.1328961 L916.921444,24.1328961 C916.925227,24.1177342 916.955494,23.8448195 916.997117,23.3293141 C917.042519,22.8100182 917.069002,22.1580554 917.072786,21.3772163 L917.072786,19.610852 C917.080354,18.1628882 916.709563,17.0863915 915.952851,16.381362 C915.188567,15.680123 914.011879,15.3276082 912.418998,15.3313987 L907.069031,15.3313987 L907.069031,19.8420714 L910.277497,19.8420714 C910.814765,19.8420714 911.227174,19.9899001 911.522291,20.2817672 C911.806061,20.5736342 911.957403,20.9867967 911.957403,21.5288355 L911.957403,53.8618987 Z" id="Path"></path>
                <path d="M988.215231,23.3179426 C986.996925,20.6456534 985.199727,18.5040315 982.812295,16.8892865 C980.4173,15.278332 977.443413,14.4520071 973.901992,14.4103118 C970.409757,14.4254737 967.246694,15.2366367 964.390099,16.8438007 C961.541072,18.4509648 959.255797,20.7555773 957.556975,23.7652194 C955.854366,26.7824425 954.976578,30.3985615 954.938744,34.6325291 C955.063604,40.6707656 956.985657,45.5150006 960.716255,49.165234 C964.446853,52.811677 969.217933,54.6841747 975.048414,54.7827272 C977.96933,54.7144985 980.492969,54.2406884 982.630686,53.3575063 C984.764619,52.4705337 986.418038,51.583561 987.575811,50.7041694 C988.737364,49.8171968 989.33517,49.3433867 989.346522,49.275158 L986.822879,45.3633814 C986.811527,45.4202386 986.334801,45.833401 985.392692,46.5952878 C984.454366,47.360965 983.118768,48.1228517 981.397243,48.8847384 C979.675719,49.6504156 977.636374,50.0597876 975.282993,50.1204353 C971.181604,50.086321 967.727208,48.7482811 964.893312,46.1025252 C962.059421,43.4529788 960.545993,39.68145 960.3606,34.7841483 L989.880002,34.7841483 C989.88757,34.7310816 989.914057,34.4126812 989.955675,33.828947 C990.001078,33.2414225 990.023781,32.6955932 990.035128,32.1838782 C990.035128,28.9468072 989.425975,25.9940224 988.215231,23.3179426 M960.580044,30.6563143 C961.310273,26.7748615 962.888023,23.8220766 965.309505,21.8093311 C967.734776,19.7965856 970.576235,18.7807366 973.822535,18.7693543 C976.735883,18.7655747 979.214124,19.7510998 981.261032,21.72215 C983.315512,23.6894098 984.454366,26.6725185 984.688946,30.6563143 L960.580044,30.6563143 Z" id="Shape"></path>
                <path d="M996.009384,48.0470421 C996.009384,48.1304327 996.542868,48.7103763 997.602269,49.7944539 C998.676801,50.8747411 1000.29995,51.9550282 1002.49064,53.0391058 C1004.66998,54.119393 1007.42441,54.6993366 1010.7653,54.7827272 C1014.66995,54.7334509 1017.87084,53.7403449 1020.36043,51.7996185 C1022.85002,49.8551016 1024.14022,47.251041 1024.22346,43.9874367 C1024.10995,40.8527087 1022.98245,38.4457532 1020.85608,36.7627795 C1018.71837,35.0798058 1016.2477,33.7266041 1013.43272,32.6993836 C1010.6291,31.6721632 1008.16221,30.5767142 1006.02071,29.4130364 C1003.88678,28.2493587 1002.77062,26.6156613 1002.65333,24.5195252 C1002.67225,22.6394465 1003.43653,21.2369685 1004.93104,20.312091 C1006.42934,19.3834231 1008.52165,18.9209844 1011.2269,18.9209844 C1012.60412,18.909613 1014.03052,19.2052705 1015.50233,19.815538 C1016.97036,20.422015 1017.7649,21.4264925 1017.8822,22.832761 L1017.8822,24.6711444 L1022.77057,24.6711444 L1022.77057,21.3772163 C1022.69868,19.5805282 1021.97602,18.1704691 1020.60637,17.1546202 C1019.23293,16.1387712 1017.64005,15.4223703 1015.83529,15.0054173 C1014.03052,14.5960454 1012.44899,14.3951499 1011.07177,14.4103118 C1007.12173,14.4103118 1003.87164,15.270751 1001.3253,17.0030009 C998.790309,18.7314604 997.469842,21.3393114 997.382821,24.8265542 C997.500113,27.8703106 998.620047,30.2241994 1000.75398,31.8920111 C1002.8917,33.5636134 1005.35858,34.9243961 1008.16977,35.9781499 C1010.98097,37.0205322 1013.44786,38.1387242 1015.58178,39.3099829 C1017.72329,40.4850321 1018.84322,42.0921961 1018.95673,44.1390559 C1018.88106,46.1707539 1018.06381,47.7021083 1016.5012,48.7255382 C1014.94236,49.7565491 1013.05815,50.2720545 1010.84476,50.2720545 C1008.31355,50.2000354 1006.16827,49.6959014 1004.40134,48.7596525 C1002.64198,47.8271942 1001.29503,46.8947358 1000.37941,45.9584869 C999.46,45.0222381 998.994622,44.5181041 998.987054,44.4460849 L996.009384,48.0470421 Z" id="Path"></path>
            </g>
            <path d="M185.12017,126.422494 C181.014998,123.860128 175.562875,124.785006 171.336629,128.294991 L171.336629,122.685079 C171.510673,113.845677 169.97076,106.799173 166.709324,101.537985 C163.444104,96.2805872 157.413095,93.585555 148.60873,93.4566787 C139.104405,93.6082979 130.965948,96.3943016 124.19336,101.81848 C117.424555,107.238868 112.657258,114.387716 109.883902,123.253651 C109.055301,126.062398 108.468848,129.011392 108.13211,132.104425 C107.791589,135.193667 107.628895,138.426948 107.639691,141.804267 L107.639691,203.410958 L177.310884,204.339626 C176.758483,203.941625 176.247701,203.50572 175.778539,203.0357 C172.778169,199.995734 171.295009,195.132547 171.336629,188.442347 L171.336629,151.526851 C176.644976,153.740492 183.538638,150.943117 187.382745,144.753261 C191.567372,138.017576 190.557159,129.811184 185.12017,126.422494 M131.2535,105.870505 C136.592115,105.870505 140.916734,110.203025 140.916734,115.551394 C140.916734,120.899763 136.592115,125.232283 131.2535,125.232283 C125.918667,125.232283 121.590264,120.899763 121.590264,115.551394 C121.590264,110.203025 125.918667,105.870505 131.2535,105.870505 M133.629581,174.394824 C113.334517,177.707705 117.916419,135.887325 117.916419,135.887325 C117.916419,135.887325 124.113905,143.384897 134.420347,143.600955 C146.614789,143.854917 163.232224,136.834946 163.232224,136.834946 C163.232224,136.834946 153.928428,171.085734 133.629581,174.394824 M155.445639,128.776383 C150.110807,128.776383 145.778621,124.443863 145.778621,119.099284 C145.778621,113.750915 150.110807,109.414605 155.445639,109.414605 C160.784255,109.414605 165.108874,113.750915 165.108874,119.099284 C165.108874,124.443863 160.784255,128.776383 155.445639,128.776383" id="Shape" fill="#E64B07"></path>
            <path d="M98.3326662,9.63018661 L167.575761,0.290440903 C185.018014,-2.06723841 201.060346,10.1873874 203.409942,27.6615057 L222.376973,168.667407 C222.778032,171.673259 222.75533,174.637415 222.346705,177.495438 L212.808327,177.495438 C210.829521,177.484066 209.31231,176.949608 208.249127,175.884483 C207.185944,174.819358 206.648677,173.295584 206.633543,171.316953 L206.633543,115.380822 C206.554088,96.5193875 202.237036,82.7030835 193.674819,73.9205385 C185.116387,65.1379935 172.808437,60.801683 156.743403,60.9002355 C144.318163,61.2224264 133.88308,64.2244875 125.457072,69.9177903 C117.02728,75.6073026 111.087077,82.0473302 107.640246,89.2492445 L107.076494,89.2492445 C107.102979,89.1885968 107.193785,88.047662 107.356478,85.8453924 C107.519171,83.6393323 107.617544,80.7509856 107.640246,77.1803523 L107.640246,26.8806666 C107.666731,20.455801 106.145736,15.7025375 103.046993,12.6398287 C101.775714,11.373808 100.201749,10.3693305 98.3326662,9.63018661" id="Path" fill="#E64B07"></path>
            <path d="M27.6177631,19.1784088 L54.670281,15.5243849 L54.670281,38.3885676 L65.8885628,38.3885676 C67.8635859,38.3847771 69.3807966,38.8851206 70.4477633,39.9047601 C71.510946,40.9130281 72.0444295,42.4709159 72.0557799,44.5784234 L72.0557799,202.940938 L55.0940405,202.713509 C37.6517878,205.071188 21.6094556,192.808982 19.2522921,175.338654 L0.289044717,55.0856373 C-2.06055162,37.6077285 10.1717267,21.5322976 27.6177631,19.1784088" id="Path" fill="#E64B07"></path>
            <polygon id="Path" fill="#7A7A7A" points="905.685736 184.318304 922.590724 184.318304 922.590724 201.913718 905.685736 201.913718"></polygon>
            <path d="M1135.87429,189.166329 C1134.96623,189.295206 1133.74414,189.367225 1132.18531,189.382387 C1129.24547,189.507473 1125.85918,188.900996 1122.03399,187.566746 C1118.19745,186.232497 1114.82629,183.450284 1111.9243,179.235269 C1109.0223,175.008882 1107.48995,168.625712 1107.33483,160.074386 L1107.33483,103.664445 L1135.04568,103.664445 L1135.04568,91.1331137 L1107.33483,91.1331137 L1107.33483,60.5136064 L1092.63188,60.5136064 L1092.63188,91.1331137 L1072.65085,91.1331137 C1067.19873,91.0042373 1063.14653,91.7585431 1060.50181,93.3846595 C1057.8571,95.0183569 1055.01563,98.3009136 1051.97743,103.224749 L1035.9351,127.896991 L1033.59685,132.274997 L1031.97749,134.5038 L1030.76674,132.274997 C1030.01003,130.88389 1029.16629,129.428345 1028.23932,127.896991 L1012.41265,103.224749 C1009.36688,98.2023611 1006.51028,94.8970615 1003.81638,93.3050594 C1001.13005,91.7206383 997.108113,90.9928659 991.750579,91.1331137 L957.327669,91.1331137 L957.327669,60.5136064 L942.617152,60.5136064 L942.617152,91.1331137 L927.891504,91.1331137 L927.891504,103.664445 L942.409056,103.664445 L942.409056,161.620902 C942.639856,173.776976 945.023504,182.813483 949.541085,188.741795 C954.058666,194.662527 959.279989,198.532608 965.21641,200.340668 C971.160399,202.156308 976.366591,202.975052 980.853901,202.7969 C982.757035,202.777947 984.293166,202.705928 985.447156,202.577052 L987.232997,201.917508 L1001.20193,201.917508 L1028.23932,160.722558 C1029.26088,159.111604 1030.13489,157.701545 1030.85376,156.48101 L1032.41638,154.551655 L1033.5174,156.56061 C1034.21736,157.826631 1035.01569,159.210156 1035.9351,160.722558 L1062.98005,201.917508 L1080.56229,201.917508 L1041.87152,144.199851 L1065.83664,108.51247 C1067.03225,106.689249 1068.48136,105.487666 1070.17261,104.903932 C1071.87144,104.320198 1073.86537,104.054864 1076.162,104.10414 L1080.56229,103.664445 L1092.41621,103.664445 L1092.41621,161.620902 C1092.6508,173.776976 1095.03066,182.813483 1099.54446,188.741795 C1104.06204,194.662527 1109.29093,198.532608 1115.22735,200.340668 C1121.15999,202.156308 1126.36996,202.975052 1130.86484,202.7969 C1132.76419,202.777947 1134.30032,202.705928 1135.46188,202.577052 L1137.24016,202.357204 L1137.24016,188.946481 L1135.87429,189.166329 Z M987.232997,196.819311 L987.232997,188.946481 L985.85578,189.166329 C984.962857,189.295206 983.736983,189.367225 982.174368,189.382387 C979.2421,189.507473 975.855805,188.900996 972.023051,187.566746 C968.186513,186.232497 964.819137,183.450284 961.913356,179.235269 C959.011359,175.008882 957.482796,168.625712 957.327669,160.074386 L957.327669,103.664445 L983.619691,104.10414 L988.228077,104.10414 C990.41498,104.066236 992.321897,104.365684 993.952617,105.013856 C995.579553,105.662028 997.043791,106.897725 998.341555,108.732318 L1022.30668,144.199851 L987.232997,196.819311 Z" id="Shape" fill="#7A7A7A"></path>
            <path d="M803.166153,185.197695 L816.348106,166.908624 C816.408644,167.109519 817.87667,168.538531 820.759752,171.195658 C823.642829,173.845204 827.585307,176.494751 832.598539,179.148087 C837.607981,181.801424 843.328738,183.234226 849.772156,183.435122 C854.15731,183.446493 857.759269,182.544359 860.581813,180.736299 C863.404353,178.92824 864.861027,176.153607 864.95562,172.419983 C864.645367,168.587807 861.565541,165.350736 855.716141,162.70877 C849.862961,160.066805 843.082807,157.19362 835.37946,154.100588 C827.676112,150.999974 820.899742,146.849397 815.046563,141.645066 C809.193378,136.440736 806.109772,129.363907 805.807083,120.410791 C806.162743,109.2175 810.49871,100.939089 818.822563,95.5869291 C827.150195,90.2309791 837.316648,87.5700613 849.337044,87.6079661 C854.596206,87.5548994 860.245074,88.2182336 866.279867,89.5979688 C872.31466,90.970123 877.505716,93.3619166 881.849252,96.7695592 C886.196576,100.169621 888.474284,104.89256 888.678596,110.934588 L888.678596,122.60927 L864.077828,122.60927 L864.077828,117.1017 C863.873516,114.459735 862.29577,112.473523 859.344587,111.150645 C856.3934,109.827767 853.271959,109.168223 849.991604,109.168223 C844.959458,109.179595 840.933739,110.040034 837.91445,111.757122 C834.891378,113.47421 833.340115,115.991089 833.264446,119.30397 C833.574698,123.553099 836.677224,126.964533 842.575806,129.530688 C848.466825,132.104425 855.303732,134.810829 863.056266,137.65369 C870.820151,140.496551 877.645707,144.438651 883.544294,149.487572 C889.44666,154.544074 892.541617,161.670179 892.855654,170.873467 C892.587024,181.551253 888.455364,189.920635 880.468251,195.974034 C872.477354,202.023642 862.246584,205.109093 849.772156,205.219017 C839.503552,204.968845 830.914849,203.240386 824.006052,200.026058 C817.097255,196.81552 811.898631,193.597402 808.410179,190.383074 C804.917948,187.176327 803.169937,185.444077 803.166153,185.197695" id="Path" fill="#4E4E4E"></path>
            <path d="M241.423459,162.500294 L241.423459,118.864274 C241.415892,117.215415 240.992133,115.99488 240.159747,115.202669 C239.319795,114.406668 238.135538,114.008668 236.588058,114.016249 L227.791261,114.016249 L227.791261,90.2497885 L254.385966,90.2497885 C259.516486,90.2347696 263.258436,91.4249807 265.615599,93.8281458 C267.972762,96.2275204 269.134318,99.949773 269.100266,104.994903 L269.100266,156.769086 C268.960274,163.701877 270.125613,169.232189 272.5925,173.352442 C275.066954,177.480276 279.694259,179.591574 286.485765,179.690126 C296.652215,179.367935 304.427449,175.550921 309.807684,168.261825 C315.187919,160.965149 317.900738,152.140909 317.946141,141.785314 L317.946141,90.2497885 L345.846178,90.2497885 L345.846178,174.178767 C345.853745,175.736654 346.277505,176.926865 347.10989,177.764562 C347.942275,178.602258 349.1341,179.019211 350.685363,179.030583 L359.478377,179.030583 L359.478377,202.577052 L333.761459,202.577052 C328.922274,202.542938 325.259779,201.447488 322.777758,199.275543 C320.299521,197.096016 319.054727,194.018145 319.043376,190.03435 L319.043376,186.952688 C319.054727,185.584325 319.088779,184.413066 319.156883,183.427541 L319.262823,181.892396 C316.114894,187.968537 311.419484,193.309325 304.745269,197.926131 C298.071053,202.542938 289.856925,204.972636 280.102885,205.219017 C268.010598,205.351684 258.56681,202.057756 251.775304,195.337233 C244.991365,188.6205 241.54075,177.6698 241.423459,162.500294" id="Path" fill="#4E4E4E"></path>
            <path d="M372.376564,202.577774 L372.376564,118.864274 C372.361429,117.215415 371.945237,115.99488 371.109068,115.198879 C370.280466,114.402878 369.084858,114.008668 367.537379,114.016249 L358.740581,114.016249 L358.740581,90.2499316 L384.453715,90.2499316 C389.391273,90.2802554 393.084036,91.3757045 395.524438,93.5514407 C397.961057,95.7233864 399.179366,98.8050477 399.175582,102.792634 L399.175582,106.090353 C399.164231,107.356373 399.126396,108.463194 399.065859,109.418395 L398.952352,110.934588 C402.119199,105.146523 406.625429,99.8853348 412.928855,95.1472333 C419.224714,90.4015508 426.814553,87.8922522 435.698371,87.6070741 C444.169783,87.6193376 451.135333,89.5752259 456.606376,93.4680501 C462.077413,97.3570838 466.02368,103.111034 468.445163,110.71474 C471.960097,104.452865 476.856036,99.0931242 483.568088,94.6165659 C490.276357,90.151379 498.142394,87.8126521 507.162421,87.6070741 C518.887704,87.543528 527.915299,90.970123 534.248993,97.8953322 C540.586471,104.824332 543.794937,115.634784 543.863042,130.326689 L543.863042,174.178767 C543.874394,175.732864 544.290587,176.926865 545.126751,177.764562 C545.96292,178.602258 547.150965,179.019211 548.702228,179.030583 L557.279575,179.030583 L557.279575,202.577774 L530.900533,202.577774 C525.667858,202.611166 521.861586,201.436117 519.481722,199.051904 C517.098074,196.671482 515.928954,192.854468 515.966788,187.612232 L515.966788,135.614411 C516.133266,129.083412 515.191157,123.738833 513.132892,119.580675 C511.074633,115.418727 506.886223,113.269524 500.560097,113.133067 C493.568059,113.322591 487.752714,115.858423 483.102709,120.736772 C478.445133,125.615121 475.319909,131.676101 473.719456,138.91971 C473.068684,141.114399 472.610873,143.392478 472.346023,145.753948 C472.077388,148.111627 471.952529,150.609554 471.960097,153.243939 L471.960097,202.577774 L444.060059,202.577774 L444.060059,135.614411 C444.264371,129.375279 443.409287,124.1103 441.498585,119.830847 C439.58788,115.543813 435.380553,113.311219 428.876598,113.133067 C421.808891,113.322591 415.974628,115.866004 411.385159,120.763305 C406.791906,125.664398 403.602358,131.789815 401.81273,139.135768 C401.256545,141.338037 400.825218,143.604745 400.518749,145.947263 C400.21228,148.282199 400.057154,150.715688 400.05337,153.243939 L400.05337,202.577774 L372.376564,202.577774 Z" id="Path" fill="#4E4E4E"></path>
            <path d="M662.23578,179.030583 C660.684517,179.019211 659.496473,178.594677 658.664088,177.764562 C657.827923,176.926865 657.404162,175.729073 657.392811,174.178767 L657.392811,132.331854 C657.718199,119.46317 654.32812,108.864985 647.23393,100.541088 C640.135952,92.2134008 627.396674,87.8960427 609.035016,87.6079661 C604.854175,87.5056232 599.572309,87.9491095 593.189429,88.953587 C586.806549,89.9504835 581.078224,92.1072673 575.993108,95.4315194 C570.907992,98.7519809 568.217875,103.846388 567.926538,110.71474 L567.926538,122.620641 L593.847769,122.620641 L593.847769,116.669586 C594.154242,113.656153 596.015757,111.632036 599.432319,110.601025 C602.84888,109.577595 605.974109,109.096204 608.811784,109.168223 C615.928677,109.081042 621.165136,110.745063 624.517381,114.160287 C627.869621,117.57172 629.526823,123.257442 629.496557,131.221243 L629.496557,132.108216 L625.977839,132.108216 C621.206759,132.028615 615.168182,132.358387 607.862112,133.105112 C600.556037,133.848046 593.204565,135.462791 585.815253,137.941766 C578.422158,140.428322 572.217107,144.241546 567.196313,149.385229 C562.167946,154.536493 559.557287,161.473074 559.352974,170.206342 C559.693494,181.494395 563.567866,190.140483 570.972313,196.137024 C578.372972,202.137356 587.249224,205.16216 597.593502,205.219017 C605.977893,204.972636 612.652106,203.259338 617.623719,200.082915 C622.591544,196.906492 626.155664,193.730069 628.3123,190.549855 C630.472717,187.369641 631.52455,185.660134 631.910476,185.413753 L631.804536,186.759374 C631.740214,187.634975 631.706163,188.802443 631.694812,190.254197 C631.645625,193.654259 632.731509,196.535025 634.963815,198.888914 C637.192337,201.246593 640.862397,202.470918 645.974,202.577052 L671.032575,202.577052 L671.032575,179.030583 L662.23578,179.030583 Z M629.939236,153.892111 C629.897614,158.558194 628.800378,163.137095 626.64753,167.625025 C624.487109,172.116745 621.501876,175.846578 617.680473,178.814525 C613.859066,181.782472 609.439857,183.328988 604.415279,183.435122 C598.70209,183.294874 594.449359,181.812796 591.649518,178.969935 C588.853461,176.130864 587.461104,172.768708 587.468641,168.883464 C587.665417,163.739781 589.840973,159.892443 593.999115,157.35282 C598.157253,154.813198 603.121298,153.141596 608.887458,152.341804 C614.653617,151.538222 620.056553,151.170546 625.096267,151.246355 L629.939236,151.246355 L629.939236,153.892111 Z" id="Shape" fill="#4E4E4E"></path>
            <path d="M683.862657,202.577774 L683.862657,118.864274 C683.85131,117.215415 683.431334,115.99488 682.598948,115.198879 C681.762779,114.402878 680.574739,114.008668 679.023472,114.016249 L670.230461,114.016249 L670.230461,90.2499316 L695.943596,90.2499316 C700.884937,90.2802554 704.570133,91.3757045 707.014319,93.5514407 C709.447153,95.7233864 710.66546,98.8050477 710.66546,102.792634 L710.66546,106.090353 C710.642761,107.356373 710.570871,108.463194 710.446012,109.418395 L710.219001,110.934588 C712.254561,107.663402 714.713878,104.248179 718.04342,100.677545 C721.372961,97.114493 725.693797,94.0745271 731.005929,91.5500666 C736.30671,89.0369776 742.731208,87.7178901 750.264294,87.6079661 C762.761421,87.528366 772.386821,90.9322182 779.140492,97.8157321 C785.894163,104.699246 789.306941,115.532441 789.382614,130.326689 L789.382614,174.178767 C789.390182,175.732864 789.813938,176.926865 790.650107,177.764562 C791.482492,178.602258 792.674316,179.019211 794.221795,179.030583 L803.018594,179.030583 L803.018594,202.577774 L776.420104,202.577774 C771.183646,202.611166 767.381158,201.436117 765.001294,199.051904 C762.62143,196.671482 761.448521,192.854468 761.48636,187.612232 L761.48636,136.054107 C761.630134,129.121316 760.45723,123.594795 757.963858,119.470751 C755.470486,115.346708 750.778859,113.23541 743.885198,113.133067 C736.329408,113.246781 729.931393,115.388403 724.687366,119.554142 C719.44334,123.71609 715.795978,129.216078 713.745286,136.054107 C712.973439,138.373881 712.417256,140.784627 712.061596,143.305297 C711.709725,145.814596 711.539464,148.388332 711.539464,151.037879 L711.539464,202.577774 L683.862657,202.577774 Z" id="Path" fill="#4E4E4E"></path>
        </g>
    </g>
</svg>