<?xml version="1.0" encoding="UTF-8"?>
<svg width="1237px" height="400px" viewBox="0 0 1237 400" version="1.1" xmlns="http://www.w3.org/2000/svg" xmlns:xlink="http://www.w3.org/1999/xlink">
    <title>width-snitch</title>
    <defs>
        <linearGradient x1="3%" y1="50%" x2="97%" y2="50%" id="linearGradient-1">
            <stop stop-color="#999999" offset="0%"></stop>
            <stop stop-color="#000000" offset="10.9027486%"></stop>
            <stop stop-color="#000000" offset="89.6583646%"></stop>
            <stop stop-color="#999999" offset="100%"></stop>
        </linearGradient>
    </defs>
    <g id="width-snitch" stroke="none" stroke-width="1" fill="none" fill-rule="evenodd">
        <rect id="Rectangle" stroke="#C5EB9E" stroke-width="3" fill="#FFFFFF" fill-rule="nonzero" x="1.5" y="1.5" width="1234" height="397" rx="50"></rect>
        <g id="project-width-snitch" transform="translate(99.000000, 101.000000)" fill-rule="nonzero">
            <g id="Icon">
                <rect id="area" fill-opacity="0.796932445" fill="#B6E685" x="0" y="0" width="197.64147" height="198" rx="19"></rect>
                <polygon id="arrow" fill="#979797" points="2.48086715 95.5642153 1.0873342 96.9468523 2.51755573 98.2921032 15.9495003 110.926045 18.5897857 108.162713 5.15784116 95.5287721 5.19452976 98.2566604 18.4392947 85.1154533 15.7256321 82.4230082"></polygon>
                <path d="M168.922444,95.1923077 C85.4207349,95.1923077 85.4207349,95.1923077 26.6602207,95.1923077 C15.8358719,95.1923077 15.8358719,95.1923077 8.49077694,95.1923077 C3.07860132,95.1923077 3.07860132,95.1923077 1.91884922,95.1923077 L1.91884922,99 C3.07860132,99 3.07860132,99 8.49077694,99 C15.8358719,99 15.8358719,99 26.6602207,99 C85.4207349,99 85.4207349,99 168.922443,99 L193.803772,99 L193.803772,95.1923077 L168.922444,95.1923077 Z" id="Line" fill="url(#linearGradient-1)"></path>
                <polygon id="arrow" fill="#979797" points="193.241753 97.7493947 194.635287 96.3667573 193.205065 95.0215064 179.77312 82.3875651 177.132835 85.1508965 190.56478 97.7848374 190.528091 95.0569496 177.283326 108.198157 179.996989 110.890601"></polygon>
                <polygon id="start" fill="#979797" points="193.840672 116.134615 193.840672 118.038462 197.678371 118.038462 197.678371 116.134615 197.678373 78.0576923 197.678373 76.1538462 193.840674 76.1538462 193.840674 78.0576923"></polygon>
                <rect id="Rectangle-65" fill="#FFFFFF" x="49.8900798" y="87.5769231" width="95.942461" height="19.0384615"></rect>
                <polygon id="end" fill="#979797" points="8.38755853e-08 116.134615 0 119.942308 3.83769929 119.942308 3.83769937 116.134615 3.8377002 78.0576923 3.83770028 74.25 1.00650702e-06 74.25 9.22631438e-07 78.0576923"></polygon>
                <g id="mask" transform="translate(26.947570, 72.574794)" fill="#000000">
                    <path d="M128.740318,39.453236 C131.504501,37.4533857 134.005398,35.3221116 136.217783,33.1829913 C137.577692,31.8681168 138.571299,30.8052506 139.163879,30.1164264 L143.74633,24.7897135 L139.424656,19.2485672 C138.856836,18.5205208 137.909514,17.4194094 136.601379,16.0673907 C134.486663,13.8817333 132.056408,11.7072756 129.320372,9.66968298 C121.267807,3.67274393 112.201681,0 102.279545,0 C92.3574081,0 83.291281,3.67274279 75.2387157,9.6696834 C72.5026793,11.707276 70.0724251,13.8817338 67.9577092,16.0673912 C66.6495743,17.4194099 65.7022529,18.5205213 65.1344324,19.2485678 L60.8127599,24.789714 L65.3952104,30.1164264 C65.9877905,30.8052506 66.9813972,31.8681168 68.3413062,33.1829913 C70.5536912,35.3221116 73.0545878,37.4533857 75.818771,39.453236 C84.0446272,45.404535 92.9115666,49.0594524 102.279545,49.0594524 C111.647523,49.0594524 120.514462,45.404535 128.740318,39.453236 Z M85.8323472,25.5622601 C83.7682838,24.0689371 81.8774079,22.4575254 80.2189204,20.8539598 C79.2563058,19.9232228 78.6171382,19.2395023 78.3511188,18.9302769 L78.6118969,29.7981355 C78.8218575,29.5289292 79.3759807,28.8848483 80.2388347,27.9930484 C81.7424344,26.439008 83.4918046,24.8737679 85.442583,23.420976 C90.7809182,19.445388 96.4850365,17.1346154 102.279544,17.1346154 C108.074052,17.1346154 113.77817,19.445389 119.116506,23.4209763 C121.067284,24.8737684 122.816654,26.4390085 124.320255,27.9930489 C125.183109,28.8848489 125.737232,29.5289298 125.947193,29.798136 L126.20797,18.9302769 C125.941951,19.2395023 125.302784,19.9232228 124.340169,20.8539598 C122.681681,22.4575254 120.790805,24.0689371 118.726742,25.5622601 C113.157606,29.5914567 107.496756,31.9248369 102.279545,31.9248369 C97.0623336,31.9248369 91.4014828,29.5914567 85.8323472,25.5622601 Z" id="eye"></path>
                    <path d="M67.9275583,39.453236 C70.6917415,37.4533857 73.1926381,35.3221116 75.405023,33.1829913 C76.764932,31.8681168 77.7585388,30.8052506 78.3511188,30.1164264 L82.9335697,24.7897135 L78.6118965,19.2485672 C78.0440756,18.5205208 77.0967542,17.4194094 75.7886189,16.0673907 C73.6739027,13.8817333 71.2436484,11.7072756 68.5076117,9.66968298 C60.4550471,3.67274393 51.3889208,0 41.4667854,0 C31.5446482,0 22.478521,3.67274279 14.4259558,9.6696834 C11.6899194,11.707276 9.25966527,13.8817338 7.14494944,16.0673912 C5.83681421,17.4194099 4.88949311,18.5205213 4.32167224,19.2485678 L0,24.789714 L4.58245058,30.1164264 C5.17503045,30.8052506 6.16863725,31.8681168 7.52854614,33.1829913 C9.74093119,35.3221116 12.2418279,37.4533857 15.0060112,39.453236 C23.2318671,45.404535 32.0988064,49.0594524 41.4667846,49.0594524 C50.8347626,49.0594524 59.701702,45.404535 67.9275583,39.453236 Z M25.0195873,25.5622601 C22.9555236,24.0689371 21.064648,22.4575254 19.4061604,20.8539598 C18.4435456,19.9232228 17.8043783,19.2395023 17.5383587,18.9302769 L17.799137,29.7981355 C18.0090974,29.5289292 18.5632207,28.8848483 19.4260748,27.9930484 C20.9296745,26.439008 22.6790445,24.8737679 24.6298228,23.420976 C29.9681583,19.445388 35.6722764,17.1346154 41.4667839,17.1346154 C47.2612916,17.1346154 52.9654099,19.445389 58.3037455,23.4209763 C60.2545242,24.8737684 62.0038945,26.4390085 63.5074946,27.9930489 C64.3703489,28.8848489 64.9244722,29.5289298 65.1344328,29.798136 L65.3952104,18.9302769 C65.1291911,19.2395023 64.4900235,19.9232228 63.5274088,20.8539598 C61.8689213,22.4575254 59.9780455,24.0689371 57.9139821,25.5622601 C52.3448465,29.5914567 46.6839957,31.9248369 41.4667846,31.9248369 C36.2495736,31.9248369 30.5887227,29.5914567 25.0195873,25.5622601 Z" id="eye"></path>
                </g>
                <path d="M57.0119625,146.877788 L57.0119625,144.899181 C58.8379888,144.717569 60.111506,144.41409 60.8325526,143.988734 C61.5535989,143.56338 62.0920343,142.557359 62.4478756,140.970642 L64.4424482,140.970642 L64.4424482,161.416249 L61.7455612,161.416249 L61.7455612,146.877788 L57.0119625,146.877788 Z M83.6858609,144.167956 C84.5848278,145.859817 85.0343044,148.177728 85.0343044,151.121757 C85.0343044,153.91285 84.6269665,156.221202 83.8122777,158.046882 C82.6323836,160.665921 80.7033797,161.975421 78.0252074,161.975421 C75.6092343,161.975421 73.8113274,160.904881 72.6314333,158.763769 C71.6481883,156.976323 71.1565734,154.577166 71.1565734,151.566227 C71.1565734,149.233944 71.4515422,147.23146 72.0414895,145.558716 C73.1464695,142.442634 75.1457042,140.884615 78.0392536,140.884615 C80.6425118,140.884615 82.5246956,141.979051 83.6858609,144.167956 L83.6858609,144.167956 Z M81.1434831,157.846154 C81.9207151,156.660895 82.3093249,154.452907 82.3093249,151.222121 C82.3093249,148.889838 82.0284019,146.970991 81.4665479,145.465521 C80.9046935,143.960052 79.813776,143.207328 78.1937629,143.207328 C76.7048491,143.207328 75.6162726,143.921818 74.9280014,145.350819 C74.2397298,146.779821 73.8955991,148.885057 73.8955991,151.666591 C73.8955991,153.75991 74.1156554,155.442188 74.5557748,156.713473 C75.2299998,158.653856 76.3817836,159.624033 78.0111612,159.624033 C79.3221547,159.624033 80.3662512,159.031412 81.1434831,157.846154 L81.1434831,157.846154 Z M99.6845818,144.167956 C100.583548,145.859817 101.033025,148.177728 101.033025,151.121757 C101.033025,153.91285 100.625687,156.221202 99.8109982,158.046882 C98.6311041,160.665921 96.7021001,161.975421 94.0239282,161.975421 C91.6079547,161.975421 89.8100479,160.904881 88.6301538,158.763769 C87.6469091,156.976323 87.1552939,154.577166 87.1552939,151.566227 C87.1552939,149.233944 87.4502631,147.23146 88.04021,145.558716 C89.14519,142.442634 91.1444247,140.884615 94.0379745,140.884615 C96.6412327,140.884615 98.5234161,141.979051 99.6845818,144.167956 L99.6845818,144.167956 Z M97.1422036,157.846154 C97.9194355,156.660895 98.3080454,154.452907 98.3080454,151.222121 C98.3080454,148.889838 98.0271228,146.970991 97.4652684,145.465521 C96.9034139,143.960052 95.8124965,143.207328 94.1924833,143.207328 C92.7035696,143.207328 91.6149934,143.921818 90.9267218,145.350819 C90.2384502,146.779821 89.8943199,148.885057 89.8943199,151.666591 C89.8943199,153.75991 90.1143762,155.442188 90.5544953,156.713473 C91.2287203,158.653856 92.3805045,159.624033 94.0098816,159.624033 C95.3208751,159.624033 96.3649721,159.031412 97.1422036,157.846154 L97.1422036,157.846154 Z M121.393118,158.168753 C122.175032,157.160327 122.565983,155.652491 122.565983,153.645198 C122.565983,152.421705 122.392747,151.370282 122.04627,150.490897 C121.390774,148.799036 120.192169,147.953118 118.450421,147.953118 C116.699308,147.953118 115.500704,148.846828 114.854571,150.634274 C114.508095,151.590128 114.334859,152.804044 114.334859,154.276058 C114.334859,155.461317 114.508095,156.469727 114.854571,157.30132 C115.510068,158.888037 116.708672,159.681384 118.450421,159.681384 C119.630315,159.681384 120.611204,159.177179 121.393118,158.168753 L121.393118,158.168753 Z M111.904851,146.132226 L114.362951,146.132226 L114.362951,148.168184 C114.86862,147.470411 115.421102,146.930361 116.020413,146.54802 C116.872559,145.974508 117.874517,145.687756 119.026318,145.687756 C120.73061,145.687756 122.177363,146.354454 123.366621,147.68787 C124.555879,149.021286 125.150499,150.925795 125.150499,153.401456 C125.150499,156.746944 124.293684,159.136542 122.580029,160.570323 C121.493778,161.478384 120.229624,161.932408 118.787532,161.932408 C117.654459,161.932408 116.704003,161.67911 115.936135,161.172508 C115.486652,160.885752 114.985673,160.393494 114.433183,159.695722 L114.433183,167.538462 L111.904851,167.538462 L111.904851,146.132226 Z M126.667498,146.060537 L129.940283,146.060537 L133.39567,151.465863 L136.893195,146.060537 L139.969332,146.132226 L134.898622,153.544834 L140.194073,161.416249 L136.963427,161.416249 L133.227114,155.652481 L129.603172,161.416249 L126.400619,161.416249 L131.696069,153.544834 L126.667498,146.060537 Z" id="100-px" fill="#000000"></path>
            </g>
            <g id="Width-Snitch-2" transform="translate(240.306150, 19.032788)" fill="#BCBCBC">
                <path d="M228.089093,12.1188461 C234.824268,12.1188461 240.125288,14.3074038 242.991049,18.6897115 L251.730983,8.32326923 C247.003114,3.06605768 240.553242,0 230.669551,0 C194.706163,0 172.358323,64.5377885 155.882108,150.397788 C155.882108,150.397788 154.160104,135.358269 154.160104,109.365577 C154.160104,86.0027884 155.594258,53.8779807 160.895279,15.9144231 L150.150586,13.4325 C135.96698,40.0067308 121.926026,104.840481 114.044546,146.163461 C112.898242,141.490385 112.755591,134.919519 112.755591,127.035 C112.755591,119.589231 112.898242,111.117981 112.898242,102.355961 C112.898242,85.5666348 112.039787,67.3130769 107.311919,51.9827886 C100.576744,30.3698077 84.1030768,15.9144231 57.4527741,15.9144231 C22.9235397,15.9144231 0,39.4251923 0,73.590577 C0,100.606154 17.192018,117.982212 41.119211,117.982212 C62.0379916,117.982212 78.3715547,106.00875 82.9542249,81.1843271 L69.6316209,77.9728847 C66.4805579,98.1216347 55.5906665,109.220192 40.6912571,109.220192 C27.2209074,109.220192 13.6104537,98.2696153 13.6104537,74.6134614 C13.6104537,45.848077 30.5171692,24.0923077 56.5943195,24.0923077 C93.5562664,24.0923077 98.7146361,64.6857692 98.7146361,99.4378846 C98.7146361,106.154134 98.571985,112.725 98.571985,119.295865 C98.571985,134.187404 99.1451373,148.936154 103.299854,163.978269 L114.617699,166.605577 C124.934438,119.0025 135.96698,67.4584614 146.423823,40.1547115 C146.423823,40.1547115 140.264348,87.9005769 140.264348,127.909904 C140.264348,142.365288 141.122802,155.945769 143.27276,165.728077 L157.601564,167.625865 C177.083644,77.8275002 196.140317,12.1188461 228.089093,12.1188461" id="Fill-1"></path>
                <path d="M197.301905,48.3300001 C197.301905,52.2735577 199.451862,55.7783652 204.03708,55.7783652 C210.339207,55.7783652 214.06597,49.64625 214.06597,44.3890386 C214.06597,40.300096 212.058663,36.7952885 207.330794,36.7952885 C201.02612,36.7952885 197.301905,43.0727886 197.301905,48.3300001" id="Fill-2"></path>
                <path d="M341.583413,95.9330771 C335.281286,112.725 330.553418,120.900288 326.826655,120.900288 C325.537699,120.900288 323.960894,120.170769 323.960894,115.936442 C323.960894,103.962981 333.27398,86.5869231 333.27398,73.0090384 C333.27398,65.999423 329.980266,62.64 324.964547,62.64 C318.805072,62.64 312.930899,67.1676923 308.20303,74.4680768 C308.773635,71.6927885 309.346787,69.0654808 309.777288,66.435577 C318.659873,55.3396155 330.983919,35.3336538 330.983919,23.5081731 C330.983919,17.9601923 328.260809,14.3074038 321.097681,14.3074038 C316.797765,14.3074038 311.782047,17.0826923 309.061485,23.3627885 C303.633097,35.9074038 297.840439,67.1495193 293.03615,96.2472117 C288.754066,107.431442 283.236521,120.900288 279.40277,120.900288 C277.540663,120.900288 276.537009,117.688846 276.537009,111.556731 C276.537009,106.154134 277.252813,98.5603848 278.686967,88.4873077 C280.406423,82.4979809 281.83803,76.8046154 283.126986,71.2566345 C285.707444,71.2566345 288.430554,71.2566345 289.003706,71.1086538 L290.290114,64.2470191 C289.003706,64.392404 286.9964,64.4650963 284.703791,64.4650963 C287.139051,52.7850001 288.573205,42.6210577 289.289009,29.6402885 L279.117468,29.6402885 C275.821206,45.2172116 273.959098,54.2440385 272.09699,64.3197117 C269.088578,64.3197117 266.650771,64.2106731 265.649665,64.2106731 L264.646012,71.0904809 C265.219164,71.2384615 267.654424,71.2462501 270.950686,71.2462501 C269.012158,80.0082691 267.684992,88.5989423 266.905505,96.3744229 C262.386519,108.246635 258.152835,116.372596 254.899878,116.372596 C253.896225,116.372596 253.465724,115.204327 253.465724,112.138269 C253.465724,107.319808 254.612028,98.4954808 257.335138,82.871827 C263.494613,58.6315384 268.652983,27.0441346 269.226135,16.6595192 L257.90829,16.6595192 L247.876853,72.9415383 C246.875747,66.370673 243.867335,62.9723076 238.566315,62.9723076 C228.588372,62.9723076 220.077699,79.2034616 216.243948,96.0291345 C216.236306,96.0291345 216.221022,95.9798078 216.213379,95.9798078 C209.911253,112.771731 205.180837,120.923654 201.456622,120.923654 C200.167666,120.923654 198.590861,119.755385 198.590861,115.521058 C198.590861,103.547596 202.745577,86.7556731 207.761296,63.3902883 L195.582448,63.3902883 C193.147189,73.7749039 186.842515,97.5504808 186.842515,113.758269 C186.842515,123.831346 189.422973,131.347212 197.159254,131.347212 C205.002523,131.347212 209.842475,123.888461 214.071064,113.914039 C214.122011,124.290866 217.349494,132.237692 224.308836,132.237692 C232.475617,132.237692 236.046992,124.553077 241.141678,115.643077 L241.141678,117.252692 C241.141678,127.325769 243.362961,131.560096 247.948179,131.560096 C253.267031,131.560096 259.434148,124.893173 266.278859,110.045769 C266.273764,110.445577 266.166776,110.873942 266.166776,111.263365 C266.166776,123.675577 268.701382,131.560096 275.006056,131.560096 C280.309624,131.560096 284.010914,128.234423 287.793718,121.066442 C287.582289,122.979808 287.43709,124.968462 287.43709,126.918173 C287.43709,128.231827 287.426901,128.294135 287.572099,130.890289 L299.175247,130.890289 C304.476267,86.7556731 312.212548,73.1829807 318.374571,73.1829807 C319.948829,73.1829807 320.667179,74.4836537 320.667179,76.088077 C320.667179,86.6025 311.354093,102.8025 311.354093,118.571538 C311.354093,127.481538 316.081962,131.565288 321.097681,131.565288 C332.846026,131.565288 339.290804,114.625385 345.595478,97.9788462 C345.595478,97.1039425 342.444415,95.9330771 341.583413,95.9330771 L341.583413,95.9330771 Z M321.813484,23.8015385 C322.529287,23.8015385 323.102439,24.5310577 323.102439,25.8447115 C323.102439,33.2904808 316.512463,46.2868271 312.500398,54.1713462 C317.658767,29.9310577 319.520875,23.8015385 321.813484,23.8015385 L321.813484,23.8015385 Z M228.967926,119.88 C226.96062,119.88 226.102165,116.813942 226.102165,112.28625 C226.102165,99.1445191 233.122643,73.2998075 239.282118,73.2998075 C242.433181,73.2998075 243.724684,77.0953845 243.724684,82.4979809 C243.724684,96.0784616 235.557902,119.88 228.967926,119.88 L228.967926,119.88 Z" id="Fill-3"></path>
                <path d="M509.218962,66.5835577 C522.113612,50.5211538 529.27674,32.8517308 529.27674,17.0826923 C529.27674,9.19817308 525.695176,1.45903846 516.524741,1.45903846 C503.775289,1.45903846 494.750052,15.9144231 494.750052,56.6532694 C494.750052,61.3263462 494.890157,66.435577 495.180553,71.9861537 C490.164834,76.6566348 484.433315,81.0389421 478.271291,84.9799037 C476.697032,64.392404 465.425041,46.4322116 441.643048,46.4322116 C410.410074,46.4322116 393.98226,74.9068269 393.98226,103.962981 L393.98226,105.860769 C386.340228,105.57 378.7466,104.6925 370.867668,103.088077 L368.119085,114.622788 C377.574822,116.227212 386.661194,117.104711 395.543779,117.104711 C399.986345,142.365288 417.066282,164.707788 447.868754,164.707788 C488.987963,164.707788 509.776828,125.71875 509.776828,82.352596 C509.776828,80.4548079 509.64182,78.5570194 509.64182,76.6566348 L509.218962,66.5835577 L509.218962,66.5835577 Z M406.922763,103.088077 C406.922763,77.6795192 419.608529,52.8576924 442.24422,52.8576924 C460.58509,52.8576924 470.40255,69.2108654 470.40255,87.0256732 L470.40255,89.7983654 C452.571146,99.2925001 430.926372,105.276635 407.429683,106.00875 C407.429683,104.985866 406.922763,103.962981 406.922763,103.088077 L406.922763,103.088077 Z M450.907731,157.114038 C425.976886,157.114038 412.22378,138.278942 408.211716,116.813942 C430.849954,115.206923 451.050383,108.929423 468.242401,99.7286537 C465.521839,111.263365 458.786663,121.923173 448.041972,128.348654 L455.205099,139.883366 C468.815553,132.144231 477.267638,113.015769 478.271291,94.0352886 C484.578513,89.9463461 490.304939,85.4186538 495.608508,80.748173 C495.608508,82.6459615 495.751159,84.54375 495.751159,86.296154 C495.751159,127.47375 478.987096,157.114038 450.907731,157.114038 L450.907731,157.114038 Z M507.787354,31.9768269 C507.787354,17.3734615 509.649463,9.63432691 516.812591,9.63432691 C520.248956,9.63432691 521.970961,12.99375 521.970961,16.9373077 C521.970961,30.6631731 517.097894,44.243654 508.645809,56.5078844 C508.072657,46.8709617 507.787354,38.693077 507.787354,31.9768269 L507.787354,31.9768269 Z" id="Fill-4"></path>
                <path d="M583.305886,55.7783652 C589.610561,55.7783652 593.334776,49.64625 593.334776,44.3890386 C593.334776,40.300096 591.330015,36.7952885 586.602146,36.7952885 C580.297475,36.7952885 576.573259,43.0727886 576.573259,48.3300001 C576.573259,52.2735577 578.720668,55.7783652 583.305886,55.7783652" id="Fill-5"></path>
                <path d="M711.684332,95.9330771 C705.379657,112.725 700.651787,120.900288 696.927572,120.900288 C695.636069,120.900288 694.061813,120.170769 694.061813,115.936442 C694.061813,103.962981 703.372349,86.5869231 703.372349,73.0090384 C703.372349,65.999423 700.078635,62.64 695.062916,62.64 C688.900896,62.64 683.029268,67.1676923 678.298853,74.4680768 C678.874552,71.6927885 679.445158,69.0654808 679.875659,66.435577 C688.760791,55.3396155 701.082289,35.3336538 701.082289,23.5081731 C701.082289,17.9601923 698.35663,14.3074038 691.196049,14.3074038 C686.896135,14.3074038 681.880416,17.0826923 679.159855,23.3627885 C673.736562,35.9022116 667.94645,67.1183656 663.142162,96.2030767 C656.860416,112.078558 649.175082,119.88 642.335464,119.88 C635.029685,119.88 632.163925,112.28625 632.163925,103.088077 C632.163925,89.2168269 638.611248,71.838173 646.062229,71.838173 C648.066986,71.838173 648.925442,73.8839422 648.925442,76.95 C648.925442,81.3297116 647.065879,87.7551924 644.20012,92.7190383 L653.368008,97.6854807 C656.233768,91.4053844 658.095877,84.2503845 658.095877,77.9728847 C658.095877,69.5042309 654.802163,62.7879807 646.635378,62.7879807 C633.549681,62.7879807 624.453118,79.0996155 621.638304,95.9434614 C621.615378,95.9408653 621.579715,95.9330771 621.561882,95.9330771 C617.261967,107.177019 611.675643,120.900288 607.806229,120.900288 C605.944124,120.900288 604.94047,117.688846 604.94047,111.556731 C604.94047,106.154134 605.65882,98.5603848 607.090429,88.4873077 C608.809883,82.4979809 610.241491,76.8046154 611.532995,71.2566345 C614.110905,71.2566345 616.831466,71.2566345 617.407165,71.1086538 L618.696122,64.2470191 C617.407165,64.392404 615.402408,64.4650963 613.107251,64.4650963 C615.542509,52.7850001 616.976664,42.6210577 617.692468,29.6402885 L607.520926,29.6402885 C604.224666,45.2172116 602.365106,54.2440385 600.50045,64.3197117 C597.492039,64.3197117 595.056777,64.2106731 594.053127,64.2106731 L593.049473,71.0904809 C593.622626,71.2384615 596.057884,71.2462501 599.354145,71.2462501 C597.415617,80.0108652 596.085904,88.6067306 595.308964,96.3822115 C589.093447,112.86 584.419075,120.900288 580.727976,120.900288 C579.439019,120.900288 577.862212,119.742404 577.862212,115.508077 C577.862212,103.534615 582.016929,86.7556731 587.030101,63.3902883 L574.853801,63.3902883 C573.20822,71.17875 569.807513,83.80125 567.767093,96.4133653 C561.638185,112.577019 557.014758,120.687404 553.356772,120.687404 C552.070366,120.687404 550.491013,120.064327 550.491013,115.83 C550.491013,103.856538 559.806646,86.5349999 559.806646,72.9545191 C559.806646,65.9449037 556.510385,62.6140384 551.497213,62.6140384 C545.480391,62.6140384 539.748868,66.5809616 535.16365,73.5879809 L536.737907,63.3902883 L524.416409,63.3902883 C522.696955,76.3710579 520.261693,89.6945194 517.395933,106.193077 C513.386415,117.14625 512.094911,130.890289 512.094911,130.890289 L524.561607,130.890289 L530.29313,100.634712 C535.018452,80.0472115 541.323124,73.1674038 544.904688,73.1674038 C546.481494,73.1674038 547.197298,74.4758655 547.197298,76.0828845 C547.197298,86.5947117 537.884212,102.799904 537.884212,118.568942 C537.884212,127.476346 542.614627,131.562692 547.6278,131.562692 C555.776751,131.562692 561.375809,123.405577 566.144437,112.854808 C566.136794,113.296154 566.113868,113.753077 566.113868,114.186635 C566.113868,124.262308 569.061143,131.560096 576.797423,131.560096 C585.356496,131.560096 590.127671,122.559231 595.222355,111.242596 L595.222355,111.263365 C595.222355,123.675577 597.43345,131.560096 603.735575,131.560096 C611.155986,131.560096 615.303059,125.046346 621.032035,110.590962 C621.877755,122.702019 626.720252,132.292212 636.840844,132.292212 C645.771829,132.292212 653.20243,124.457019 658.735259,115.635288 C658.072951,119.127115 657.548197,123.057692 657.548197,126.918173 C657.548197,128.231827 657.525271,128.294135 657.670469,130.890289 L669.273616,130.890289 C674.574637,86.7556731 682.310918,73.1829807 688.470395,73.1829807 C690.049748,73.1829807 690.765548,74.4836537 690.765548,76.088077 C690.765548,86.6025 681.452466,102.8025 681.452466,118.571538 C681.452466,127.481538 686.180331,131.565288 691.196049,131.565288 C702.941848,131.565288 709.389175,114.625385 715.69385,97.9788462 C715.69385,97.1039425 712.542784,95.9330771 711.684332,95.9330771 L711.684332,95.9330771 Z M691.911854,23.8015385 C692.627658,23.8015385 693.20081,24.5310577 693.20081,25.8447115 C693.20081,33.2904808 686.610832,46.2868271 682.598767,54.1713462 C687.757137,29.9310577 689.619247,23.8015385 691.911854,23.8015385 L691.911854,23.8015385 Z" id="Fill-6"></path>
            </g>
            <g id="Width-Snitch" transform="translate(236.505352, 11.417404)" fill="#000000">
                <path d="M228.089093,12.1188461 C234.824268,12.1188461 240.125288,14.3074038 242.991049,18.6897115 L251.730983,8.32326923 C247.003114,3.06605768 240.553242,0 230.669551,0 C194.706163,0 172.358323,64.5377885 155.882108,150.397788 C155.882108,150.397788 154.160104,135.358269 154.160104,109.365577 C154.160104,86.0027884 155.594258,53.8779807 160.895279,15.9144231 L150.150586,13.4325 C135.96698,40.0067308 121.926026,104.840481 114.044546,146.163461 C112.898242,141.490385 112.755591,134.919519 112.755591,127.035 C112.755591,119.589231 112.898242,111.117981 112.898242,102.355961 C112.898242,85.5666348 112.039787,67.3130769 107.311919,51.9827886 C100.576744,30.3698077 84.1030768,15.9144231 57.4527741,15.9144231 C22.9235397,15.9144231 0,39.4251923 0,73.590577 C0,100.606154 17.192018,117.982212 41.119211,117.982212 C62.0379916,117.982212 78.3715547,106.00875 82.9542249,81.1843271 L69.6316209,77.9728847 C66.4805579,98.1216347 55.5906665,109.220192 40.6912571,109.220192 C27.2209074,109.220192 13.6104537,98.2696153 13.6104537,74.6134614 C13.6104537,45.848077 30.5171692,24.0923077 56.5943195,24.0923077 C93.5562664,24.0923077 98.7146361,64.6857692 98.7146361,99.4378846 C98.7146361,106.154134 98.571985,112.725 98.571985,119.295865 C98.571985,134.187404 99.1451373,148.936154 103.299854,163.978269 L114.617699,166.605577 C124.934438,119.0025 135.96698,67.4584614 146.423823,40.1547115 C146.423823,40.1547115 140.264348,87.9005769 140.264348,127.909904 C140.264348,142.365288 141.122802,155.945769 143.27276,165.728077 L157.601564,167.625865 C177.083644,77.8275002 196.140317,12.1188461 228.089093,12.1188461" id="Fill-1"></path>
                <path d="M197.301905,48.3300001 C197.301905,52.2735577 199.451862,55.7783652 204.03708,55.7783652 C210.339207,55.7783652 214.06597,49.64625 214.06597,44.3890386 C214.06597,40.300096 212.058663,36.7952885 207.330794,36.7952885 C201.02612,36.7952885 197.301905,43.0727886 197.301905,48.3300001" id="Fill-2"></path>
                <path d="M341.583413,95.9330771 C335.281286,112.725 330.553418,120.900288 326.826655,120.900288 C325.537699,120.900288 323.960894,120.170769 323.960894,115.936442 C323.960894,103.962981 333.27398,86.5869231 333.27398,73.0090384 C333.27398,65.999423 329.980266,62.64 324.964547,62.64 C318.805072,62.64 312.930899,67.1676923 308.20303,74.4680768 C308.773635,71.6927885 309.346787,69.0654808 309.777288,66.435577 C318.659873,55.3396155 330.983919,35.3336538 330.983919,23.5081731 C330.983919,17.9601923 328.260809,14.3074038 321.097681,14.3074038 C316.797765,14.3074038 311.782047,17.0826923 309.061485,23.3627885 C303.633097,35.9074038 297.840439,67.1495193 293.03615,96.2472117 C288.754066,107.431442 283.236521,120.900288 279.40277,120.900288 C277.540663,120.900288 276.537009,117.688846 276.537009,111.556731 C276.537009,106.154134 277.252813,98.5603848 278.686967,88.4873077 C280.406423,82.4979809 281.83803,76.8046154 283.126986,71.2566345 C285.707444,71.2566345 288.430554,71.2566345 289.003706,71.1086538 L290.290114,64.2470191 C289.003706,64.392404 286.9964,64.4650963 284.703791,64.4650963 C287.139051,52.7850001 288.573205,42.6210577 289.289009,29.6402885 L279.117468,29.6402885 C275.821206,45.2172116 273.959098,54.2440385 272.09699,64.3197117 C269.088578,64.3197117 266.650771,64.2106731 265.649665,64.2106731 L264.646012,71.0904809 C265.219164,71.2384615 267.654424,71.2462501 270.950686,71.2462501 C269.012158,80.0082691 267.684992,88.5989423 266.905505,96.3744229 C262.386519,108.246635 258.152835,116.372596 254.899878,116.372596 C253.896225,116.372596 253.465724,115.204327 253.465724,112.138269 C253.465724,107.319808 254.612028,98.4954808 257.335138,82.871827 C263.494613,58.6315384 268.652983,27.0441346 269.226135,16.6595192 L257.90829,16.6595192 L247.876853,72.9415383 C246.875747,66.370673 243.867335,62.9723076 238.566315,62.9723076 C228.588372,62.9723076 220.077699,79.2034616 216.243948,96.0291345 C216.236306,96.0291345 216.221022,95.9798078 216.213379,95.9798078 C209.911253,112.771731 205.180837,120.923654 201.456622,120.923654 C200.167666,120.923654 198.590861,119.755385 198.590861,115.521058 C198.590861,103.547596 202.745577,86.7556731 207.761296,63.3902883 L195.582448,63.3902883 C193.147189,73.7749039 186.842515,97.5504808 186.842515,113.758269 C186.842515,123.831346 189.422973,131.347212 197.159254,131.347212 C205.002523,131.347212 209.842475,123.888461 214.071064,113.914039 C214.122011,124.290866 217.349494,132.237692 224.308836,132.237692 C232.475617,132.237692 236.046992,124.553077 241.141678,115.643077 L241.141678,117.252692 C241.141678,127.325769 243.362961,131.560096 247.948179,131.560096 C253.267031,131.560096 259.434148,124.893173 266.278859,110.045769 C266.273764,110.445577 266.166776,110.873942 266.166776,111.263365 C266.166776,123.675577 268.701382,131.560096 275.006056,131.560096 C280.309624,131.560096 284.010914,128.234423 287.793718,121.066442 C287.582289,122.979808 287.43709,124.968462 287.43709,126.918173 C287.43709,128.231827 287.426901,128.294135 287.572099,130.890289 L299.175247,130.890289 C304.476267,86.7556731 312.212548,73.1829807 318.374571,73.1829807 C319.948829,73.1829807 320.667179,74.4836537 320.667179,76.088077 C320.667179,86.6025 311.354093,102.8025 311.354093,118.571538 C311.354093,127.481538 316.081962,131.565288 321.097681,131.565288 C332.846026,131.565288 339.290804,114.625385 345.595478,97.9788462 C345.595478,97.1039425 342.444415,95.9330771 341.583413,95.9330771 L341.583413,95.9330771 Z M321.813484,23.8015385 C322.529287,23.8015385 323.102439,24.5310577 323.102439,25.8447115 C323.102439,33.2904808 316.512463,46.2868271 312.500398,54.1713462 C317.658767,29.9310577 319.520875,23.8015385 321.813484,23.8015385 L321.813484,23.8015385 Z M228.967926,119.88 C226.96062,119.88 226.102165,116.813942 226.102165,112.28625 C226.102165,99.1445191 233.122643,73.2998075 239.282118,73.2998075 C242.433181,73.2998075 243.724684,77.0953845 243.724684,82.4979809 C243.724684,96.0784616 235.557902,119.88 228.967926,119.88 L228.967926,119.88 Z" id="Fill-3"></path>
                <path d="M509.218962,66.5835577 C522.113612,50.5211538 529.27674,32.8517308 529.27674,17.0826923 C529.27674,9.19817308 525.695176,1.45903846 516.524741,1.45903846 C503.775289,1.45903846 494.750052,15.9144231 494.750052,56.6532694 C494.750052,61.3263462 494.890157,66.435577 495.180553,71.9861537 C490.164834,76.6566348 484.433315,81.0389421 478.271291,84.9799037 C476.697032,64.392404 465.425041,46.4322116 441.643048,46.4322116 C410.410074,46.4322116 393.98226,74.9068269 393.98226,103.962981 L393.98226,105.860769 C386.340228,105.57 378.7466,104.6925 370.867668,103.088077 L368.119085,114.622788 C377.574822,116.227212 386.661194,117.104711 395.543779,117.104711 C399.986345,142.365288 417.066282,164.707788 447.868754,164.707788 C488.987963,164.707788 509.776828,125.71875 509.776828,82.352596 C509.776828,80.4548079 509.64182,78.5570194 509.64182,76.6566348 L509.218962,66.5835577 L509.218962,66.5835577 Z M406.922763,103.088077 C406.922763,77.6795192 419.608529,52.8576924 442.24422,52.8576924 C460.58509,52.8576924 470.40255,69.2108654 470.40255,87.0256732 L470.40255,89.7983654 C452.571146,99.2925001 430.926372,105.276635 407.429683,106.00875 C407.429683,104.985866 406.922763,103.962981 406.922763,103.088077 L406.922763,103.088077 Z M450.907731,157.114038 C425.976886,157.114038 412.22378,138.278942 408.211716,116.813942 C430.849954,115.206923 451.050383,108.929423 468.242401,99.7286537 C465.521839,111.263365 458.786663,121.923173 448.041972,128.348654 L455.205099,139.883366 C468.815553,132.144231 477.267638,113.015769 478.271291,94.0352886 C484.578513,89.9463461 490.304939,85.4186538 495.608508,80.748173 C495.608508,82.6459615 495.751159,84.54375 495.751159,86.296154 C495.751159,127.47375 478.987096,157.114038 450.907731,157.114038 L450.907731,157.114038 Z M507.787354,31.9768269 C507.787354,17.3734615 509.649463,9.63432691 516.812591,9.63432691 C520.248956,9.63432691 521.970961,12.99375 521.970961,16.9373077 C521.970961,30.6631731 517.097894,44.243654 508.645809,56.5078844 C508.072657,46.8709617 507.787354,38.693077 507.787354,31.9768269 L507.787354,31.9768269 Z" id="Fill-4"></path>
                <path d="M583.305886,55.7783652 C589.610561,55.7783652 593.334776,49.64625 593.334776,44.3890386 C593.334776,40.300096 591.330015,36.7952885 586.602146,36.7952885 C580.297475,36.7952885 576.573259,43.0727886 576.573259,48.3300001 C576.573259,52.2735577 578.720668,55.7783652 583.305886,55.7783652" id="Fill-5"></path>
                <path d="M711.684332,95.9330771 C705.379657,112.725 700.651787,120.900288 696.927572,120.900288 C695.636069,120.900288 694.061813,120.170769 694.061813,115.936442 C694.061813,103.962981 703.372349,86.5869231 703.372349,73.0090384 C703.372349,65.999423 700.078635,62.64 695.062916,62.64 C688.900896,62.64 683.029268,67.1676923 678.298853,74.4680768 C678.874552,71.6927885 679.445158,69.0654808 679.875659,66.435577 C688.760791,55.3396155 701.082289,35.3336538 701.082289,23.5081731 C701.082289,17.9601923 698.35663,14.3074038 691.196049,14.3074038 C686.896135,14.3074038 681.880416,17.0826923 679.159855,23.3627885 C673.736562,35.9022116 667.94645,67.1183656 663.142162,96.2030767 C656.860416,112.078558 649.175082,119.88 642.335464,119.88 C635.029685,119.88 632.163925,112.28625 632.163925,103.088077 C632.163925,89.2168269 638.611248,71.838173 646.062229,71.838173 C648.066986,71.838173 648.925442,73.8839422 648.925442,76.95 C648.925442,81.3297116 647.065879,87.7551924 644.20012,92.7190383 L653.368008,97.6854807 C656.233768,91.4053844 658.095877,84.2503845 658.095877,77.9728847 C658.095877,69.5042309 654.802163,62.7879807 646.635378,62.7879807 C633.549681,62.7879807 624.453118,79.0996155 621.638304,95.9434614 C621.615378,95.9408653 621.579715,95.9330771 621.561882,95.9330771 C617.261967,107.177019 611.675643,120.900288 607.806229,120.900288 C605.944124,120.900288 604.94047,117.688846 604.94047,111.556731 C604.94047,106.154134 605.65882,98.5603848 607.090429,88.4873077 C608.809883,82.4979809 610.241491,76.8046154 611.532995,71.2566345 C614.110905,71.2566345 616.831466,71.2566345 617.407165,71.1086538 L618.696122,64.2470191 C617.407165,64.392404 615.402408,64.4650963 613.107251,64.4650963 C615.542509,52.7850001 616.976664,42.6210577 617.692468,29.6402885 L607.520926,29.6402885 C604.224666,45.2172116 602.365106,54.2440385 600.50045,64.3197117 C597.492039,64.3197117 595.056777,64.2106731 594.053127,64.2106731 L593.049473,71.0904809 C593.622626,71.2384615 596.057884,71.2462501 599.354145,71.2462501 C597.415617,80.0108652 596.085904,88.6067306 595.308964,96.3822115 C589.093447,112.86 584.419075,120.900288 580.727976,120.900288 C579.439019,120.900288 577.862212,119.742404 577.862212,115.508077 C577.862212,103.534615 582.016929,86.7556731 587.030101,63.3902883 L574.853801,63.3902883 C573.20822,71.17875 569.807513,83.80125 567.767093,96.4133653 C561.638185,112.577019 557.014758,120.687404 553.356772,120.687404 C552.070366,120.687404 550.491013,120.064327 550.491013,115.83 C550.491013,103.856538 559.806646,86.5349999 559.806646,72.9545191 C559.806646,65.9449037 556.510385,62.6140384 551.497213,62.6140384 C545.480391,62.6140384 539.748868,66.5809616 535.16365,73.5879809 L536.737907,63.3902883 L524.416409,63.3902883 C522.696955,76.3710579 520.261693,89.6945194 517.395933,106.193077 C513.386415,117.14625 512.094911,130.890289 512.094911,130.890289 L524.561607,130.890289 L530.29313,100.634712 C535.018452,80.0472115 541.323124,73.1674038 544.904688,73.1674038 C546.481494,73.1674038 547.197298,74.4758655 547.197298,76.0828845 C547.197298,86.5947117 537.884212,102.799904 537.884212,118.568942 C537.884212,127.476346 542.614627,131.562692 547.6278,131.562692 C555.776751,131.562692 561.375809,123.405577 566.144437,112.854808 C566.136794,113.296154 566.113868,113.753077 566.113868,114.186635 C566.113868,124.262308 569.061143,131.560096 576.797423,131.560096 C585.356496,131.560096 590.127671,122.559231 595.222355,111.242596 L595.222355,111.263365 C595.222355,123.675577 597.43345,131.560096 603.735575,131.560096 C611.155986,131.560096 615.303059,125.046346 621.032035,110.590962 C621.877755,122.702019 626.720252,132.292212 636.840844,132.292212 C645.771829,132.292212 653.20243,124.457019 658.735259,115.635288 C658.072951,119.127115 657.548197,123.057692 657.548197,126.918173 C657.548197,128.231827 657.525271,128.294135 657.670469,130.890289 L669.273616,130.890289 C674.574637,86.7556731 682.310918,73.1829807 688.470395,73.1829807 C690.049748,73.1829807 690.765548,74.4836537 690.765548,76.088077 C690.765548,86.6025 681.452466,102.8025 681.452466,118.571538 C681.452466,127.481538 686.180331,131.565288 691.196049,131.565288 C702.941848,131.565288 709.389175,114.625385 715.69385,97.9788462 C715.69385,97.1039425 712.542784,95.9330771 711.684332,95.9330771 L711.684332,95.9330771 Z M691.911854,23.8015385 C692.627658,23.8015385 693.20081,24.5310577 693.20081,25.8447115 C693.20081,33.2904808 686.610832,46.2868271 682.598767,54.1713462 C687.757137,29.9310577 689.619247,23.8015385 691.911854,23.8015385 L691.911854,23.8015385 Z" id="Fill-6"></path>
            </g>
        </g>
    </g>
</svg>